<mxfile host="app.diagrams.net" agent="Mozilla/5.0 (Windows NT 10.0; Win64; x64) AppleWebKit/537.36 (KHTML, like Gecko) Chrome/129.0.0.0 Safari/537.36" version="24.7.17">
  <diagram name="Página-1" id="5O7uEBMRA8r1-YtzGNJg">
    <mxGraphModel dx="1677" dy="1637" grid="1" gridSize="10" guides="1" tooltips="1" connect="1" arrows="1" fold="1" page="1" pageScale="1" pageWidth="827" pageHeight="1169" math="0" shadow="0">
      <root>
        <mxCell id="0" />
        <mxCell id="1" parent="0" />
        <mxCell id="aVqaGwzXdZVDVJxjxJ1D-1" value="&lt;p style=&quot;text-align:justify;text-indent:-18.0pt;&lt;br/&gt;line-height:150%;mso-list:l0 level1 lfo1&quot; class=&quot;MsoListParagraph&quot;&gt;&lt;span style=&quot;font-family: Arial, sans-serif; border: 1pt none windowtext; padding: 0cm;&quot; lang=&quot;ES-TRAD&quot;&gt;&amp;nbsp; &amp;nbsp; &amp;nbsp; Cantidad de reservas&lt;/span&gt;&lt;/p&gt;" style="rounded=1;whiteSpace=wrap;html=1;fillColor=#dae8fc;gradientColor=#7ea6e0;strokeColor=#6c8ebf;" vertex="1" parent="1">
          <mxGeometry x="40" y="65" width="130" height="35" as="geometry" />
        </mxCell>
        <mxCell id="aVqaGwzXdZVDVJxjxJ1D-2" value="&lt;p style=&quot;text-align:justify;text-indent:-18.0pt;&lt;br/&gt;line-height:150%;mso-list:l0 level1 lfo1&quot; class=&quot;MsoListParagraph&quot;&gt;&lt;span style=&quot;font-family: Arial, sans-serif; border: 1pt none windowtext; padding: 0cm;&quot; lang=&quot;ES-TRAD&quot;&gt;&amp;nbsp; &amp;nbsp; &amp;nbsp;&amp;nbsp;&lt;/span&gt;&lt;span style=&quot;text-indent: -18pt; background-color: initial; font-family: Arial, sans-serif; border: 1pt none windowtext; padding: 0cm;&quot; lang=&quot;ES-TRAD&quot;&gt;Estado de reservas&lt;/span&gt;&lt;/p&gt;&lt;p style=&quot;text-align:justify;text-indent:-18.0pt;&lt;br/&gt;line-height:150%;mso-list:l0 level1 lfo1&quot; class=&quot;MsoListParagraph&quot;&gt;&lt;span style=&quot;font-family: Arial, sans-serif; border: 1pt none windowtext; padding: 0cm;&quot; lang=&quot;ES-TRAD&quot;&gt;&lt;/span&gt;&lt;/p&gt;" style="rounded=1;whiteSpace=wrap;html=1;fillColor=#dae8fc;gradientColor=#7ea6e0;strokeColor=#6c8ebf;" vertex="1" parent="1">
          <mxGeometry x="40" y="120" width="130" height="30" as="geometry" />
        </mxCell>
        <mxCell id="aVqaGwzXdZVDVJxjxJ1D-3" value="&lt;p style=&quot;text-align:justify;text-indent:-18.0pt;&lt;br/&gt;line-height:150%;mso-list:l0 level1 lfo1&quot; class=&quot;MsoListParagraph&quot;&gt;&lt;span style=&quot;font-family: Arial, sans-serif; border: 1pt none windowtext; padding: 0cm;&quot; lang=&quot;ES-TRAD&quot;&gt;&amp;nbsp; &amp;nbsp; &amp;nbsp;&lt;/span&gt;&lt;span style=&quot;text-indent: -18pt; background-color: initial; font-family: Arial, sans-serif; border: 1pt none windowtext; padding: 0cm;&quot; lang=&quot;ES-TRAD&quot;&gt;Promedio de reservas&lt;/span&gt;&lt;/p&gt;&lt;p style=&quot;text-align:justify;text-indent:-18.0pt;&lt;br/&gt;line-height:150%;mso-list:l0 level1 lfo1&quot; class=&quot;MsoListParagraph&quot;&gt;&lt;span style=&quot;font-family: Arial, sans-serif; border: 1pt none windowtext; padding: 0cm;&quot; lang=&quot;ES-TRAD&quot;&gt;&lt;/span&gt;&lt;/p&gt;&lt;p style=&quot;text-align:justify;text-indent:-18.0pt;&lt;br/&gt;line-height:150%;mso-list:l0 level1 lfo1&quot; class=&quot;MsoListParagraph&quot;&gt;&lt;span style=&quot;font-family: Arial, sans-serif; border: 1pt none windowtext; padding: 0cm;&quot; lang=&quot;ES-TRAD&quot;&gt;&lt;/span&gt;&lt;/p&gt;" style="rounded=1;whiteSpace=wrap;html=1;fillColor=#dae8fc;gradientColor=#7ea6e0;strokeColor=#6c8ebf;" vertex="1" parent="1">
          <mxGeometry x="40" y="170" width="130" height="30" as="geometry" />
        </mxCell>
        <mxCell id="aVqaGwzXdZVDVJxjxJ1D-4" value="&lt;p style=&quot;text-align:justify;text-indent:-18.0pt;&lt;br/&gt;line-height:150%;mso-list:l0 level1 lfo1&quot; class=&quot;MsoListParagraph&quot;&gt;&lt;span style=&quot;border: 1pt none windowtext; padding: 0cm;&quot; lang=&quot;ES-TRAD&quot;&gt;&lt;span style=&quot;font-variant-numeric: normal; font-variant-east-asian: normal; font-variant-alternates: normal; font-size-adjust: none; font-kerning: auto; font-optical-sizing: auto; font-feature-settings: normal; font-variation-settings: normal; font-variant-position: normal; font-stretch: normal; line-height: normal;&quot;&gt;&lt;font face=&quot;Symbol&quot;&gt;&amp;nbsp; &amp;nbsp; &amp;nbsp; &amp;nbsp;&amp;nbsp;&lt;/font&gt;&lt;/span&gt;&lt;span style=&quot;font-family: &amp;quot;Times New Roman&amp;quot;; font-variant-numeric: normal; font-variant-east-asian: normal; font-variant-alternates: normal; font-size-adjust: none; font-kerning: auto; font-optical-sizing: auto; font-feature-settings: normal; font-variation-settings: normal; font-variant-position: normal; font-stretch: normal; font-size: 7pt; line-height: normal;&quot;&gt;&amp;nbsp;&lt;/span&gt;&lt;/span&gt;&lt;span style=&quot;font-family: Arial, sans-serif; border: 1pt none windowtext; padding: 0cm;&quot; lang=&quot;ES-TRAD&quot;&gt;Tipo de documento&lt;/span&gt;&lt;/p&gt;" style="rounded=1;whiteSpace=wrap;html=1;fillColor=#dae8fc;gradientColor=#7ea6e0;strokeColor=#6c8ebf;" vertex="1" parent="1">
          <mxGeometry x="40" y="220" width="130" height="30" as="geometry" />
        </mxCell>
        <mxCell id="aVqaGwzXdZVDVJxjxJ1D-5" value="&lt;p class=&quot;MsoListParagraph&quot; style=&quot;text-indent: -18pt;&quot;&gt;&lt;span lang=&quot;ES-TRAD&quot; style=&quot;border: 1pt none windowtext; padding: 0cm;&quot;&gt;&lt;span style=&quot;font-variant-numeric: normal; font-variant-east-asian: normal; font-variant-alternates: normal; font-size-adjust: none; font-kerning: auto; font-optical-sizing: auto; font-feature-settings: normal; font-variation-settings: normal; font-variant-position: normal; font-stretch: normal; line-height: normal;&quot;&gt;&lt;font face=&quot;Symbol&quot;&gt;&amp;nbsp; &amp;nbsp; &amp;nbsp; &amp;nbsp;&amp;nbsp;&lt;/font&gt;&lt;/span&gt;&lt;/span&gt;&lt;span lang=&quot;ES-TRAD&quot; style=&quot;text-indent: -18pt; background-color: initial; font-family: Arial, sans-serif; border: 1pt none windowtext; padding: 0cm;&quot;&gt;Cantidad de reservas canceladas&lt;/span&gt;&lt;/p&gt;&lt;p class=&quot;MsoListParagraph&quot; style=&quot;text-indent: -18pt;&quot;&gt;&lt;span lang=&quot;ES-TRAD&quot; style=&quot;font-family: Arial, sans-serif; border: 1pt none windowtext; padding: 0cm;&quot;&gt;&lt;/span&gt;&lt;/p&gt;" style="rounded=1;whiteSpace=wrap;html=1;arcSize=23;align=center;fillColor=#dae8fc;gradientColor=#7ea6e0;strokeColor=#6c8ebf;" vertex="1" parent="1">
          <mxGeometry x="40" y="270" width="130" height="40" as="geometry" />
        </mxCell>
        <mxCell id="aVqaGwzXdZVDVJxjxJ1D-6" value="Cancelación" style="rounded=1;whiteSpace=wrap;html=1;fillColor=#f5f5f5;gradientColor=#b3b3b3;strokeColor=#666666;" vertex="1" parent="1">
          <mxGeometry x="-320" y="30" width="80" height="30" as="geometry" />
        </mxCell>
        <mxCell id="aVqaGwzXdZVDVJxjxJ1D-7" value="Temporada" style="rounded=1;whiteSpace=wrap;html=1;fillColor=#f5f5f5;gradientColor=#b3b3b3;strokeColor=#666666;" vertex="1" parent="1">
          <mxGeometry x="-320" y="70" width="80" height="30" as="geometry" />
        </mxCell>
        <mxCell id="aVqaGwzXdZVDVJxjxJ1D-8" value="Cliente" style="rounded=1;whiteSpace=wrap;html=1;fillColor=#f5f5f5;gradientColor=#b3b3b3;strokeColor=#666666;" vertex="1" parent="1">
          <mxGeometry x="-320" y="110" width="80" height="30" as="geometry" />
        </mxCell>
        <mxCell id="aVqaGwzXdZVDVJxjxJ1D-9" value="Año" style="rounded=1;whiteSpace=wrap;html=1;fillColor=#f5f5f5;gradientColor=#b3b3b3;strokeColor=#666666;" vertex="1" parent="1">
          <mxGeometry x="-320" y="150" width="80" height="30" as="geometry" />
        </mxCell>
        <mxCell id="aVqaGwzXdZVDVJxjxJ1D-10" value="Vuelo" style="rounded=1;whiteSpace=wrap;html=1;fillColor=#f5f5f5;gradientColor=#b3b3b3;strokeColor=#666666;" vertex="1" parent="1">
          <mxGeometry x="-320" y="190" width="80" height="30" as="geometry" />
        </mxCell>
        <mxCell id="aVqaGwzXdZVDVJxjxJ1D-11" value="Destino nacional" style="rounded=1;whiteSpace=wrap;html=1;fillColor=#f5f5f5;gradientColor=#b3b3b3;strokeColor=#666666;" vertex="1" parent="1">
          <mxGeometry x="-320" y="230" width="80" height="50" as="geometry" />
        </mxCell>
        <mxCell id="aVqaGwzXdZVDVJxjxJ1D-12" value="Destino internacional" style="rounded=1;whiteSpace=wrap;html=1;fillColor=#f5f5f5;gradientColor=#b3b3b3;strokeColor=#666666;" vertex="1" parent="1">
          <mxGeometry x="-320" y="300" width="90" height="40" as="geometry" />
        </mxCell>
        <mxCell id="aVqaGwzXdZVDVJxjxJ1D-13" value="&lt;b&gt;&lt;font style=&quot;font-size: 16px;&quot;&gt;Reservas&lt;/font&gt;&lt;/b&gt;" style="ellipse;whiteSpace=wrap;html=1;fillColor=#f8cecc;gradientColor=#ea6b66;strokeColor=#b85450;" vertex="1" parent="1">
          <mxGeometry x="-160" y="155" width="100" height="60" as="geometry" />
        </mxCell>
        <mxCell id="aVqaGwzXdZVDVJxjxJ1D-14" value="" style="endArrow=none;html=1;rounded=0;exitX=1;exitY=0.75;exitDx=0;exitDy=0;entryX=0;entryY=0;entryDx=0;entryDy=0;" edge="1" parent="1" source="aVqaGwzXdZVDVJxjxJ1D-6" target="aVqaGwzXdZVDVJxjxJ1D-13">
          <mxGeometry width="50" height="50" relative="1" as="geometry">
            <mxPoint y="195" as="sourcePoint" />
            <mxPoint x="50" y="145" as="targetPoint" />
          </mxGeometry>
        </mxCell>
        <mxCell id="aVqaGwzXdZVDVJxjxJ1D-15" value="" style="endArrow=none;html=1;rounded=0;exitX=1;exitY=0.5;exitDx=0;exitDy=0;entryX=0.08;entryY=0.2;entryDx=0;entryDy=0;entryPerimeter=0;" edge="1" parent="1" source="aVqaGwzXdZVDVJxjxJ1D-7" target="aVqaGwzXdZVDVJxjxJ1D-13">
          <mxGeometry width="50" height="50" relative="1" as="geometry">
            <mxPoint x="-270" y="68" as="sourcePoint" />
            <mxPoint x="-175" y="169" as="targetPoint" />
          </mxGeometry>
        </mxCell>
        <mxCell id="aVqaGwzXdZVDVJxjxJ1D-16" value="" style="endArrow=none;html=1;rounded=0;exitX=1;exitY=0.25;exitDx=0;exitDy=0;entryX=0;entryY=0.367;entryDx=0;entryDy=0;entryPerimeter=0;" edge="1" parent="1" source="aVqaGwzXdZVDVJxjxJ1D-8" target="aVqaGwzXdZVDVJxjxJ1D-13">
          <mxGeometry width="50" height="50" relative="1" as="geometry">
            <mxPoint x="-270" y="100" as="sourcePoint" />
            <mxPoint x="-142" y="177" as="targetPoint" />
          </mxGeometry>
        </mxCell>
        <mxCell id="aVqaGwzXdZVDVJxjxJ1D-17" value="" style="endArrow=none;html=1;rounded=0;exitX=1;exitY=0.5;exitDx=0;exitDy=0;" edge="1" parent="1" source="aVqaGwzXdZVDVJxjxJ1D-9">
          <mxGeometry width="50" height="50" relative="1" as="geometry">
            <mxPoint x="-270" y="133" as="sourcePoint" />
            <mxPoint x="-160" y="185" as="targetPoint" />
          </mxGeometry>
        </mxCell>
        <mxCell id="aVqaGwzXdZVDVJxjxJ1D-18" value="" style="endArrow=none;html=1;rounded=0;exitX=1;exitY=0.5;exitDx=0;exitDy=0;" edge="1" parent="1" source="aVqaGwzXdZVDVJxjxJ1D-10">
          <mxGeometry width="50" height="50" relative="1" as="geometry">
            <mxPoint x="-270" y="180" as="sourcePoint" />
            <mxPoint x="-160" y="195" as="targetPoint" />
          </mxGeometry>
        </mxCell>
        <mxCell id="aVqaGwzXdZVDVJxjxJ1D-19" value="" style="endArrow=none;html=1;rounded=0;exitX=1;exitY=0.5;exitDx=0;exitDy=0;entryX=0.07;entryY=0.817;entryDx=0;entryDy=0;entryPerimeter=0;" edge="1" parent="1" source="aVqaGwzXdZVDVJxjxJ1D-11" target="aVqaGwzXdZVDVJxjxJ1D-13">
          <mxGeometry width="50" height="50" relative="1" as="geometry">
            <mxPoint x="-270" y="220" as="sourcePoint" />
            <mxPoint x="-150" y="205" as="targetPoint" />
          </mxGeometry>
        </mxCell>
        <mxCell id="aVqaGwzXdZVDVJxjxJ1D-20" value="" style="endArrow=none;html=1;rounded=0;entryX=0;entryY=1;entryDx=0;entryDy=0;" edge="1" parent="1" source="aVqaGwzXdZVDVJxjxJ1D-12" target="aVqaGwzXdZVDVJxjxJ1D-13">
          <mxGeometry width="50" height="50" relative="1" as="geometry">
            <mxPoint x="-270" y="270" as="sourcePoint" />
            <mxPoint x="-143" y="214" as="targetPoint" />
          </mxGeometry>
        </mxCell>
        <mxCell id="aVqaGwzXdZVDVJxjxJ1D-21" value="" style="endArrow=classic;html=1;rounded=0;exitX=0.94;exitY=0.217;exitDx=0;exitDy=0;exitPerimeter=0;entryX=0;entryY=0.5;entryDx=0;entryDy=0;" edge="1" parent="1" source="aVqaGwzXdZVDVJxjxJ1D-13" target="aVqaGwzXdZVDVJxjxJ1D-1">
          <mxGeometry width="50" height="50" relative="1" as="geometry">
            <mxPoint y="195" as="sourcePoint" />
            <mxPoint x="50" y="145" as="targetPoint" />
          </mxGeometry>
        </mxCell>
        <mxCell id="aVqaGwzXdZVDVJxjxJ1D-22" value="" style="endArrow=classic;html=1;rounded=0;exitX=0.96;exitY=0.383;exitDx=0;exitDy=0;exitPerimeter=0;entryX=0;entryY=0.5;entryDx=0;entryDy=0;" edge="1" parent="1" source="aVqaGwzXdZVDVJxjxJ1D-13" target="aVqaGwzXdZVDVJxjxJ1D-2">
          <mxGeometry width="50" height="50" relative="1" as="geometry">
            <mxPoint x="-56" y="178" as="sourcePoint" />
            <mxPoint x="90" y="68" as="targetPoint" />
          </mxGeometry>
        </mxCell>
        <mxCell id="aVqaGwzXdZVDVJxjxJ1D-23" value="" style="endArrow=classic;html=1;rounded=0;exitX=1;exitY=0.5;exitDx=0;exitDy=0;entryX=0;entryY=0.5;entryDx=0;entryDy=0;" edge="1" parent="1" source="aVqaGwzXdZVDVJxjxJ1D-13" target="aVqaGwzXdZVDVJxjxJ1D-3">
          <mxGeometry width="50" height="50" relative="1" as="geometry">
            <mxPoint x="-54" y="188" as="sourcePoint" />
            <mxPoint x="90" y="120" as="targetPoint" />
          </mxGeometry>
        </mxCell>
        <mxCell id="aVqaGwzXdZVDVJxjxJ1D-24" value="" style="endArrow=classic;html=1;rounded=0;exitX=1;exitY=0.683;exitDx=0;exitDy=0;entryX=0;entryY=0.5;entryDx=0;entryDy=0;exitPerimeter=0;" edge="1" parent="1" source="aVqaGwzXdZVDVJxjxJ1D-13" target="aVqaGwzXdZVDVJxjxJ1D-4">
          <mxGeometry width="50" height="50" relative="1" as="geometry">
            <mxPoint x="-50" y="195" as="sourcePoint" />
            <mxPoint x="90" y="170" as="targetPoint" />
          </mxGeometry>
        </mxCell>
        <mxCell id="aVqaGwzXdZVDVJxjxJ1D-25" value="" style="endArrow=classic;html=1;rounded=0;exitX=0.95;exitY=0.767;exitDx=0;exitDy=0;entryX=0;entryY=0.5;entryDx=0;entryDy=0;exitPerimeter=0;" edge="1" parent="1" source="aVqaGwzXdZVDVJxjxJ1D-13" target="aVqaGwzXdZVDVJxjxJ1D-5">
          <mxGeometry width="50" height="50" relative="1" as="geometry">
            <mxPoint x="-50" y="206" as="sourcePoint" />
            <mxPoint x="90" y="220" as="targetPoint" />
          </mxGeometry>
        </mxCell>
        <mxCell id="aVqaGwzXdZVDVJxjxJ1D-27" value="" style="shape=image;verticalLabelPosition=bottom;labelBackgroundColor=default;verticalAlign=top;aspect=fixed;imageAspect=0;image=data:image/png,iVBORw0KGgoAAAANSUhEUgAAAtIAAAICCAYAAADiVCqFAAAAAXNSR0IArs4c6QAAAARnQU1BAACxjwv8YQUAAAAJcEhZcwAADsMAAA7DAcdvqGQAAFCPSURBVHhe7d2/j+NWvuf9b93FxlPYeJLt4EJLNm7wJK4FOhw46gtoAVEOu4LudrJhwxCMO+AQmAsUBp0+wOJ2B9XJAhYVyA4fYJNBY10X6JsYRUL/geHELgMzgH8Efr7fw0MVpZKqJJakosT3616OyMNDiu2iqI8OD8mj35QAAAAAWMs/+FcAAAAAayBIAwAAADUQpAEAAIAaCNIAAABADVxsiHt78eKFHwP2x5s3b/wYAAD1EKRxbxakX79+7aeA5nv16hVBGgBwb3TtAAAAAGogSAMAAAA1EKQBAACAGgjS2IKxnB4fy3E5nI59+ZrGp34dpzL24ydnEz9zM8anle3b0nsAAIDDRJDGhlmI1uDbPZerq6tiOO/6eeuYyNmZBly3nnPp+vVdDDp+/iaMNaD7UbOV9wAAAIeKII2NmpydaTztyvmC8Oxaf8tW6pMzjcquUKdP5PT0xM87EWsQHuu0axi2+VZ3ciYnOt81Hk9bqm0oW6ur6zjV8cp8ex+//PV7aFA/8fNseVtx9T1ccVlfhzu2FwAAtA9BGhs10YAqnY7Mt+lOzjR8jjsyuLBW6nPpamg9nSbQiUw653J1MdDlJhqMJ9I9vxDXMGytxK78ps7goliXm/LrcAF+rOM6z4+7VufOQC5cC7mt11q7J7otfll7j7ngv+72AgCA9iFIY/M0TM9HSxewNXZqxp6+FmXFdLerBQsC+G06xco8vw7Pzauub9qKvVoL8ja2FwAAHBaCNDaqO7BW2rGczl1gWIReDdguixavs0F4m3x/a9cqXbZg3+5htxcAAOwDgjQ2y8KqdZOo9mPWUG3dMM671i/ZyoqLEXd3UZ9vQXZ9oM9kMn3brpbrS9lHuuJhtxcAAOwDHhGOe+MR4dg3PCIcALAJtEgDAAAANdAijXuzFuknT574KaD53r9/T4s0AODeCNK4tzJId12HY6CZfve737nXd+/eEaQBABtBkMa9VYN0GVZW8eOPP65VH6iruq8RpAEAm0KQxr0RpNF0BOn67PMN8HkBFiNI494I0mg6gnR99vnmrjztxl1ugOW4awe2woLLsgEAAOAQEKSxE0+fPnXDhw8ffAkAAMB+I0hj6waDgXz55Xv5/PP38vXXf/Sld0gTSTJ77cvjfl/6Ojzup2JFAAAATUCQxtY9evRIvv9e5KOPRI6Pf+9LVxVKFA9lOBzKZZxL4tI1gAfhHrPvH/3vhhM5m/h5D2R8qtsx94j/QvmI/7lhYV0AqIcgja17+fKlfPPNX+S77/4gH3/8Z19aQxiIZLmfAPBQuudXcnV1Ll0Lq2cPGUzHMl769h0ZXNh2Xsigo5Pdcx3X6XPudw9gcwjS2JmffvpBfvnlb36qBgvRFqYBNMtMS7W1UvvW4JMzjdq+1djGx6du/unpia97quPlcqcai93KZlqSXQPyjeXK9/DL2PyVW5pv37aT6Xvfsj0A4BGksTM///yD/Prr3/3UqjJJk6KPdH8UyDAOfTlwf0dHRzPDfBkWc+HTgmZnIBfWwmuv1trrWn81eJ5NpNvtaAYdy1gDr/6/dLpdsYZhC6aTzrlvGR7r+MV03FqXJ2enGpK7cq7rs+LxWRF4p8tdDHQ9E1d3cGGt4spam1duae7cum2dQdnaPnb/juXbAwDcRxobsOg+0vO3ufv222/lq6++kk8//XSmDveRxi5U97XyPtJv376V+cOfhedqWTlty+yDZ8+e+bHNmbmPtLU8n5xJ57wIlVPzLcIu2IqcatiWwUAXG0v3QkP2xOpNNACX41pu6+pcr7c7nm/11RBr6yqX64zdeieDC7kYTNz4+NYgbS3KJ3I2De+mWMfSbbMfA36Zczm9uT0uaLcH95EGlqNFGlthoaU6dDod+eyzz6ZhBtgXFiTtR2LTB/tx8DCsBVqTpmuVrgZM2y7fgtvR8aLJd0VFC7Dr07yV0Lps24oW6qK1Wv9JetwqbHt7AOwrWqRxbzzZEE133xZp28ebzFqMt9VquEqL9OTsRE7c7Ts6Gj4rXTd8S3XHtR5rKHXTt7dIn3d9a3DZf8Jam7vjSmtxtUW647qZuBbjpa3Si1qk1cJtqzQ92w8D343kxvYsfJ/DRYs0sBxBGvdGkEbTLQrSFgzm+0Hb4bBatg+HR/v32GdvJ0F6XS6cSjO7QsxvWzXkr9V6fvgI0sBydO0A0FoWlKvDfBnqslbcY9fC2z3fVYi2lurru2sUd/bws2Y8xLYBOFS0SOPeqi3SQFMtapE+BLtokbbPN9rrkD4vwKYRpHFvdO1A0y3r2nEIdhWk+aHcLof6eQE2jSCNeyNIo+kI0vXx+W6fQ/68AJtGH2kAAACgBoI0AAAAUANBGgCwFjv1v2wAgDYhSKOZ0r487velr8PjfiqZL56RpZIunAFgl54+feqGDx8++BIAaAeCNBoqlCgeynA4lMs4lyTRxKzBOUn6krj0nEmaJJJ8kmiY9uNWB8BODQYD+fLL9/L55+/l66//6EvvkOrn1T6uq/xgBoAGI0ij+cJAc3Our5HEGq6DfCSpBe0okCCOJRglojMk7o00ZPtlAOzEo0eP5PvvRT76SOT4+Pe+dFULfjADwB4hSKP5XIgOJEv60k9vJuVcv3tzLU/zQHqauQHszsuXL+Wbb/4i3333B/n44z/70hrKH8wAsEcI0mgo665RnPLtjwIZxqEUX7G5pGXH6CAUnZAgCovv3zz3dQDs2k8//SC//PI3P1WD/8EMAPuEII1mioZyOSxO+Q7jqCiyU8BRLMPLobiSUMeHkYRWpnWiOBbN1AAewM8//yC//vp3P7Wqmz+YAWCfEKQBAPcSBP8sf/3rp/Lo0T/5kjvoj1+XmRf8YAaAfUKQBgCsxR4fXR06nY589tln08dKA0BbEKQBAACAGgjSAAAAQA1Hvyk/DtTy4sULefLkiXS7XV8CNE/Z7eDdu3fy/v17efPmjZved/bvsc/eq1evtvJvqn6+1+m6YY8Lp6vHfqr+7Q7t8wJsGkEa98YXLZrukIPBLoM02oMgDayGII17I0ij6QjS9fH5bp9D/rwAm0YfaQAAAKAGgjQAAABQA0EaAAAAqIEgjWZK+/LYHhusQ5L5sm1Jk+I9Ku/5uJ/Ktt8WAADsN4I0GiqUKLZHB0eSJalOZ5p3NfCWqTpLdVxDts2am5dpME4tFFfqptnc8guV7zmUyzi/oy6A2tyPVvfhtQn98VqOA8B+IUijoSz4WutwquHWwnQiEscS90YuPKf6P4GGXp11Y57kmeTBUL6QkX5Fa91RLjKaq3OXMNAV63IAtkB/tIb6Y7j6WZz+OL7+QZzYoJXcuH7O/ZwVfhQDwG4QpNFQRetwHGou1inNxpKnqaR5ID3NuNEwFrGgrV+m8/NKYU9DtJbnoiNL6ixlIdrCNIDt6A0lSPvux64TRvpbV8vy4gew+2AH+uM30ICd93ReoL+Hs5s/nAHgARGk0WihfmGKfnEGUVg0EOe5C9ZZOtIvWVdForl5U5qkQ/vS7WkoX1ZnRtkKrsMokKGleABbEw0j/cwVn8jMPnv6Y/eGINTftNefxWU/nAHgIRCk0UxR7FqjNQ1LPIwl1OlhHGlxLJqJ3XQUDYuwOz/Pt2S7ZS8vi/GZOpkGcf0idoN+K5fvpeu7HBZ9pK0ugG2LJBb9HOpYEafz4jN5i9V+FAPAbhCk0UKhBnEN1W5wiRvALpU/XlUYX8pvQ/uRqz9g7Qfv5VDjdeUHcah13e9a6/qhBXM/nAHgIRGkAQAAgBoI0gAAAEANBGkAAACghqPflB8Hannx4oU8efJEut2uLwGa5Xe/+50fE3n37p28f/9e3rx540v2m/177LP36tWrrfybqp/v6n/Hu/z4449r1UdzVP92h/Z5ATaNII17K79onz175kuA5iJIr4cfyu1zyD88gU0jSOPeCNLYJwTp9fD5bjeCNHA7+kgDAAAANRCkAQAAgBoI0gAAAEANBGkAAACgBoI0AAAAUANBGgAAAKiBIA0AAADUQJAGAAAAaiBIAwAAADUQpAEAAIAaCNIAAABADUe/KT8O1PLixQt58uSJnwKa7/379/LmzRs/td/evXsn3W5XXr16tZV/U/n5fvbsmS9Bm9j+dUifF2DTCNK4N/uiBfYNQXo1BOl2I0gDtyNIA8AeI0hjmwjSwO3oIw0AAADUQIs0AOyxXbVIo71okQaWI0gDwB7bRZAGCNLAYgRpANhj2w7S0C/KoyPhqxLAIvSRBgBgiSJEF68AMI8gDQDACgjTAOYRpAEAuAM9OwAsQpAGAOAO1hhNP2kA8wjSAAAsUPaPBoBlCNIAANyiaI2mjzSAmwjSAAAsUWZnMjSARQjSAAAsUXbtoIsHgEUI0gAALGAXF1ZbpLnYEMA8gjQAAEucn5/L1dWVPH/+3JcAwDWCNAAAAFADQRoAAACogSANAAAA1ECQBgAAAGogSAMAAAA1EKQBAACAGgjSAAAAQA0EaQAAAKAGgjQAAABQA0EaAAAAqIEgDQAAANRAkAYAAABqIEgDAAAANRCkAQAAgBoI0gAAAEANBGkAAACgBoI0AAAAUANBGgAAAKiBIA0AAADUQJAGAAAAaiBIAwAAADUQpAEAAIAaCNIAAABADQRpAAAAoAaCNAAAAFADQRoAAACogSANAMASp6encnx8LG/fvvUlAHCNIA0AwAJHR0fy22+/TQebBoAqgjQAAABQA0EaAAAAqIEgDQDAAmV3jnKwaQCoIkgDALBA2Se6DND0kQYwjyANAMASZYimNRrAIgRpAAAAoAaCNAAAS5TdOejWAWCRo984XwUAe+vdu3fS7Xbl1atX8ubNG1+6OS9evPBjaLNt7FvAISBIA8Ae20WQfv36tZ9CG21r3wIOAV07AAAAgBoI0gAAAEANBGkAAACgBoI0AGA1kzM5OT6W4+lwImcTP++BjE91O07HfgoAdosgDQBYS/f8Sq6uzqUrEzk7e8gQO5YxGRrAAyJIAwDuZ6al2lqpNWCf6PjJmUZt32ps4+NTN//09MTXPdXxcrlTjcVuZcWyfn2usfnGcuV7+GVsPq3SAB4AQRoAsBYXjC34dgZycd4Vsdcra6W+kEHHWqkn0u12NBOPZayBV/9fOt2uaInS6c65XNlyGoMnnYvpuLUuT85ONSR35VzXZ8XjsyKMT5e7GOh6Jq7u4MJaxVW3XB8A7BZBGgCwlqJrhw4u1CrXYly2FLsqmq0HruvHRBPveNIpgnUxpzKuUx0d16EsmVjq1lB9WrZGWxB3c/xylboA8NAI0gCAe/D9pF2rtG8hdroafH2LckfH10q/RYu0C+sz6wSAZiFIAwDuwbcUu37SFpp9sbInLprrbh13655b95CiRdq1ct/a97kI6/SRBvBQeEQ4AOyxRj8i3AVckXNalfcajwgHlqNFGgCwYf7OG6dj6Z4TogEcLlqkAWCP7aJF+smTJ34KbfT+/XtapIElCNIAsMd2FaTL/s5oh9/97nfu1fYvgjSwHEEaAPbYLoN0Ga5W8eOPP65VH81R/dsRpIHb0UcaAAAAqIEgDQAAANRAkAYArMVO/S8bAKBNCNIAgHt5+vSpGz58+OBLAKAduNgQqMEuwALMQ1+E9RAXG1ZbngeDgfzrv/4v+fd/F/mP//jv8i//8n9dudVZerFhmkgSxBLnfXmcigRalEskXwwjCYsaeEDVvx0XGwK3I0gDNVi4qP20NxyMJjzx7aGD9L/927/J//gfn8l/+S8i//t/R/I//+fQla8WpP2rpecskf6oJ0M3gYdEkAZWR9cOAEBtL1++lG+++Yt8990f5OOP/+xLawgDDdO5nwCA/UCQBgDc208//SC//PI3P1WDhWgL0wCwRwjSwAJHR0fToTQ/DeDazz//IL/++nc/tapM0qQv/b4Oo4BuHQD2Dn2ka7J+Yzg8z549c2G5+rEow3NZZtPPnz+f6yM9ltPjU/1fr3suV+erP1J5fHosp7LeMnh49JEufPvtt/LVV1/Jp59+OlNnaR9pNBp9pIHVEaRrKr+8cFgsjLx9+/ZGkJ7/mMxebOhD9Jrh+dp9l8dDaWuQXgVBen8RpIHVEaRrqn554XDYl8W6LdKTsxM5OevI+dW5VGNwUS4yuLiQgZzJiU50zq/kXE7l+NS3XXcHMpicydmkmCxbsl0Lddm83RnIxcVAOmNbbqL7nUbvsS3Q1fGxjlulrn//iZydnEzX151/v2k9bAJBejmC9P4iSAOrWxiky+BQImvftO0vLzys6megGqCNTVdbpF3onfiw60oKi4P0hXS0/ExLruvPtkjPLNcp5k0GF3LROXOBuLNk3ELzYHId6nXBYrsGEzkp6w6qW4j7IkgvR5DeXwRpYHUuSN8Mzn7Es9nn5/rFjBkE6fa6EaTHN1t6V2uRtvBsmfc6SM+uz7cwd3Red6zLTYr1TYp1uBZnDdLlurvjSku2o+ux9Zd1aYreKIL0cgTp/UWQBlZnCXppg7MFaJtnr1dXV74UVQTpdqoGaU3MLshO5vo4zwTpavD1Va4Ds4bnlVukVwnSc6HedQkhSG9D24I02oMgDaxmpkW6DM3leMnKrE8oFuMA0z4zQdr4sDpVbWm26U5HOpPJddcO34e57G4x7RM90ypd1CnLive4PUifd2f7SLtlXUs2QXobaJFejhbp/UWLNLC6aR/pav9Ps6iPKIDCjSCNViJIL0eQ3l8EaWB10weyWFiuBuZymhANAAAA3MTt74AaylY6tFsTWupokcam0SINrI4gDdRQDRdol6YFDII0No0gDayOIA3UQLhopyYGjP0M0pmk/URSNx5KNIwlcuNoAoI0sLppH2kAAHYhSxLJ46EMhzbEEqSpRmubkUqqI1mqIVuHvtaz1yTT4K3jSeJqTecniV/OgrnOt/qJrcAVFesCgG0iSAMAdirXgBuEfsLkueTFiI26CnkQS6wB2V57o0Qk1uneSINyZX4vd+HaBfNeLEOt08uLlu50pCuqvgcAbAFBGtgQOx26bABwbSZEr8CCd56mkuaB9AJfWFEN5mEvdHVz6dFdBMDWEaSBLXn69KkbPnz44EsAmDCOJO/3JdHAmySJpmCRNLHxsqvGrCgKJXMt1WXL9axIE3Pa16Bty4c90RWJaKAGgG3jYkOghkUXYFVbngeDgfzrv/4v+fd/F/mP//jv8i//8n9dudVZegGW9fm009V5Xx6nLltoaIjki2HEGeqGqP79uNjwdrfu61uVSdIfSW8Y87mpqYn7OdBUtEgDW/Do0SP5/nuRjz4SOT7+vS9dVSiRvxDrMi76gAJYhV10OJIgJkQD2A2CNLAFL1++lG+++Yt8990f5OOP/+xLawgDzQaLTmYDuMl+hMYSkaIB7AhBGtiin376QX755W9+qgYL0RamAQBA4xCkgS36+ecf5Ndf/+6nVmWnp/vS7+swCmQY07wGAEATcbEhUMNdFxuab7/9Vr766iv59NNPZ+o8zAVY2IS2X2yI9uBiQ2A1BGmghv27kwE2oe1Bmn29HZq4nwNNRdcOAAAAoAaCNAAAAFADQRoAAACogT7SQA1cgNVe9JFeDX2k9xd9pIHVEaSBGggX7dTEgLG3QTpL5HESyOUw8gUbkqWSSsRDWe6BIA2sjq4dAICdS0eiYTeV8gn4WZpIYkOSFuNJIsUsu696In0rd/WKVxeYdcTqpuVyvm7yiZb59QLANhGkAQA7lkougcS9ULKRT7y5vgaxxIGG67wncRzISFN2psFYJ2QYiyT9VOvluqxbwEbdcrkt18s1TGs4jwJdDY8JB7AbBGkAwG6l1pqswXek49moaGEuBaGEOpQsXxcCCS08+ykAaAKCNABgp9I0lC+GscTW0hxlUjZKLxJFWr+vwds1N8cSBTqdpL4rxwIWwsvuHwCwZQRpoCmsn2eNb/8s6RfL+T6jS6V9edzvS1+Hhe/jWgn9eNVd6wXWFGmInrY5R0OJdSKMi1cdkdhdfxhp0NYCnT8cRpqhdb6Va5ge6kg8vNQQPrvcsFiRq29FALBtBGmgkaoXWOl4mWQt1GrgTSw8z6Tb8iIrDcrXV2/NBeDQhRELGZmud/Y9bKo4ab704q3p+7pqAAC0HkEaaKDZC6xyCXINslqejjTsRtZSN9SykSsraEh2F1kNJZZK3blmuWyk4VqTcKjruHkRl4/SSy7eshZrt/4N360MAIB9RZAGGmj+Aivp6f9qkM2lJ0HSl76OLxNW6s5n3jAIpqfI172Iy07Ha+K+bvEGAKDlCNJAY1g3CuvDnLiW5OoFVmHY0xCr4xaSXd38urtHqbzIqlL3hsrdEOYv4gp8+Q1+vand+HdpJQAA2ocnGwI17P7Jhpkk/ZH0qhdpLVXW1UCdli3NgQbnu5fE7dr+ZEO0B082BFZDkAZq2G2QtpbqkUhvlYdMrFMX62p7kN7+vo4maOJ+DjQVXTuAxrO7bawajNepCwAA7oMgDQAAANRAkAYAAABqoI80UAMXYLUXfaRXQx/p/UUfaWB1BGmgBsJFOzUxYOxlkLbH1afF3RRzieSLRY/0tidz6jz6++8eQRpYHV07AAA7Vj6ufiiXsT1BM3PB+frR95VH02d+nAcBAWgggjQA4OGEgebmXF+rj74vH3kfSzBK3KPs495IQ7ZfBgAagiANAHg4LkQHki159L09yt4eeZ/mgfR4siaAhiFIAwB2rHwcvg6jQIbxgkff+0fTB1Hosrbk5VM6AaA5CNJAU9gFWBYsdNhKd9A0KdZbeZ/H/VQjDbBj0VAuh0Uf6WEcFUXWZzqKZXg5FFcS6rhdhGhlWocHDQFoIoI00BjlBViRZK4z6OxFVpkG4dTCcFpelOVKXZ2+TlitaR0/vdiCC70AAMDaCNJAg2SjVINxKmFkYXruIqs8kzyIJbDT3RqErSGvrDOMRZK+VvJ14t6KAbm80AsAAKyNIA00SBgErrXYQvKyi6yiIjVLX4Oy1SkEYr1M147E/kIvAACwPoI00CR2gZUXLbnIKktHxZMsVKSBO+1bK3ZinUzL4jvcvNALAACsjycbAjXsx5MNMw3dZQgPXDDH/bT9yYZoD55sCKyGIA3UwCPC26ntQZp9vR2auJ8DTUXXDgAAAKAGgjQAAABQA0EaAAAAqIE+0kANXIDVTtU+v/SRvh19pPcXfaSB1RGkgRrKcPHs2TNfgrYhSN/u1iBtj6lPi7s4hnbf9G3cUCZLJZWo8ljx4imgqd3Jxu7XHsUS172TjT091B58lF//O3J9ry/skeZFjb1GkAZWR9cOAMCOzT0OX0Nv8dh7e8KQBl73aqNWbo/F94+9d6+Jf/z9kkfou8fj+3mfaNn0oUXFe8bR9UOP5t+nWH7x+hfjcftA2xGkAQA7V30cvv6PxBpIg3wkWqKvGmq1Tjqyu6BrOLXW30DDbt7TeoGMNLAue4R+8Xh8e1hRoIvFlRbpeTffxy0f93T9Gsbn138XHrcPtBJBGgCwc9XH4Wf2pM30Oq2GvdA9Hj+Xnv6fF4S6zHUqXvYI/XUsfB+jgXi07vp53D7QSvSRBmoo+42i3egjvdztfaSToo+xz8X2yPrUQnKSSXQ5lEgySR5/IvLFpfRGfRn1NHCLLpPrMpF1wwgkDkbS15Ab2bM7e7EElXr9UU+GPZ1v9eb6LVtod/VcYfV9HssnWaTlmW7LUIa2nsr6Z1q2y+2v9JG2VvWh/So4APSRBlZHkAZqsHABGIL0YrcG6TtpwO2PpDeMZ0Lw+u56TP71++hIJWDPa9fj9gnSwOoI0gBQcXR0JPt0WDy8IG0X+Y1utgJv3Oz72MWK1kf6wDPySgjSwOroIw0AXhGii1c8FLsTxi4C7ez7hBEhGsD6CNIAsABhGgBwF4I0AMyhwxsAYBX0kQYA77prh4Xp/Tg07rKPNNqh2redPtLA7QjSAKDKEF2ME6RLZZDmcfjtRJAGbkfXDgCoKEJ0EawBALgNQRoAvDI7k6EBAKsgSAOAV/bmoMMbAGAVBGkAUNYnutoizeUjAIC7EKQBwDs/P5erqyt5/vy5LwEAYDmCNAAAAFADQRoAAACogftIA4C37Xsyb8Ou7iON9uI+0sByBGkA8AjSN1mQBgjSwGIEaQDwCNJYpHjqJV+VAG6ijzQAAEuUj47nSZcAFiFIAwCwAsI0gHkEaQAA7kDPDgCLEKQBALgDT7sEsAhBGgCABcr+0QCwDEEaAIBbFK3R9JEGcBO3v0PjcN9alHZ9Ozduf4eqRcGZr0wAVQRpNI4F6devX/sptNVDBEOCNKrKrh3XLdIEaQCz6NoBAMACFprLRmlCNIBFCNIAACxxfn4uV1dX8vz5c18CANcI0gAAAEANBGk02/hUjo+Pr4fTscjkTE503EbL+Sdnk6L+Ir6Oqz9nfOrXuYh/n+PjU5nWuGVda3HrOZHbNhsAADQbQRp7oXt+5U6vXp13fYnXLU67Xgw6vmAdYxmvFIjHckbiBQAAcwjS2G/V1mmZyNlJpfVah2pL9eTsxJdbC7PV9S3N1jp8SxOz3RFhcnZ6o/W4WJ9vVb7RSn4ip6fX73dqLd/T977mWsRnymf/Ddfrm68HAAAeGkEae6EMnLd14SjCbkcGFwtaro21Xl8MpKNR9OxMtN65uFpWvqh+SeefdzXgnp5pzF3VRCadcr0a2zsX0/HrVvCJdAbW0m7bUbR6F/+GrpxfXel7am3d0PI9OwNdh6sLAACagCCNvVB27bitC8dkopGz05WuVel0NDDP6mjZovJVdM81wE7O5PSWID+rI123IYXF763TrqB4te13/wYN1adla7SVWRXl1gEAABqDII2D4YLmZCxjS56VALoZXTk/7/qgu0Ct97PgbC/FNl8H5aJF2vUJpwUaAIDGIkjjYHQGAw2dvo/x2WSFlueudF1vi9v7SE+5Lh5+XK3/fje5LisnZzLpDOR80NG3uJBBp2iRdn2iV9kuAADwIHhEOBpnI48Id+F4IoMLC6a+DHuFR4SvhkeEbxf/fQHchhZpHI7pfZ+LltyiddfPu1OlFdgN3OMZAADcjhZpNI61SD958sRPoa3ev39Pi/QKaDHdLv77ArgNQRqNUwZp+/JCu/zud79zrxZeCNKrIehtF/99AdyGII3GqQbpMlit4scff1yrPpql+vcjSK+OoLdd/PcFcBv6SAMAAAA1EKQBAACAGgjS2At22n/ZAAAA8BAI0thLT58+dcOHDx98CQAAwG4RpLF3BoOBfPnle/n88/fy9dd/9KV3SFNJMz/upJIkMwUAAABrIUhj7zx69Ei+/17ko49Ejo9/70tvl0k+HUuTvobochoAAKAegjT2zsuXL+Wbb/4i3333B/n44z/70jvkRZTOkkQkHkocB0U5AABATQRp7K2ffvpBfvnlb35qNbmEQoQGAACbQJDG3vr55x/k11//7qdWE2mKThLrH50IPaQBAMB9EKSxl4Lgn+Wvf/1UHj36J19yu9C6c4Q6EsUyjCOJ40t9tQIAAIB6CNLYC/bo6OrQ6XTks88+mz5SGgAAYNcI0gAAAEANBGkAAACgBoI0AAAAUMPRb8qPA43w4sULefLkiXS7XV+Ctij7vL97907ev38vb968cdO7Yu9r+92rV692/t517eM275OjoyM/JsLXJYB5BGk0TjVIr3Mx4Y8//sjFh3us+vcjSK+OIL09FqKrX5Hz0wBA1w4AAACgBoI0AAAAUANBGjtnp0erAwA0kXXjqB6r6NYBYB59pBvM+j4emtPTU/0y8hPefJZ+/vw5faRbiD7S9dBHenvKH/ploC7HAaBEkG6w8gvykBwfH7sgbd9Jy/a8Fy+2EKTTvjxORQIdzSWSL4aR1H5AeJZKquuI1l5BJmmSSJrmkgeBRFEssW5NGtRZ1+EhSNdDkN6e+VZoWqUPm13oDqx7HCVIN1j1C/JQvH37diZA+0aeabg2W2mRThNJAg2uFlizRPqjngxjKx5plO1JrDMyrZPr7Fz/pxfHEmpgTkaWvnU5TbrF/EySxGpp+I0CraeB3AfrIPfLBz0JRtfrnZclfRn1hm5b3Dp1/bbsyGbmus4gl1G5DS58L1/XISFI10OQ3h6CdLtYkH79+rWfQhvVOY4SpBvsUL8gy1Okptz9yjKb3srt76pBWmNvvy86nkoeDyXSYJ3ksfTyMuAWYTnWkFwsmmhlDbtlANZ6fbFXDcFaPr98b9SfWa9fzdRMkPbjtsx03brMMM51GzRUi73H8nUdEoJ0PQTp7akel6rjOEwEaRCkD0xbvyC3HqR9i7SF0zyKXHePINCEWoZZC9L9kQT66rpdWBP1GkHa6lXXG841JN8apDU4F4E5dUE6mNvG+XUdEoJ0PdveZk53w7ThO4ggDYL0gSFIb6ePtISRDK1pV8N1Pw8ksg4ZPQ3Ko8fySRa5IJ0GQw3QfX3V5JpkEl0WAbkMu30NuXGUa+gNJNSwm0WXLmC7+Rqwq+ud7/+8TpCOg9Gt6zokBOl6dhGkCRft1pbvIPZ1EKQPDEF6g0F6BdWAuzmZZHZxoRu3CwwPOAnfE0G6nvtu8ypdrQgX7dbeID2W0+NT/V+vey5X51u4AcDkTE5OzqRzfiXnncr4krcanx7LqfhtGZ/K8elYOoMLuRh0fA3URZA+MATpHQdpf+EfWfdhNClIj8fTr869UB4n7HOzqmfPnrnAXP0KmO8HbNN28S9But3aGaR9iN5WeK5aK0jvcLtaiCB9YAjSuw3SeFhNCtL7xEJ/eZxYJ/Ba/eIuOrNBev4rgRZptDFIT85O5OSsI+dX5zJzRPChd+ImOjK4uJDBxFqFJ/o5tM+jzfHlnXI9Re2iRbsjZycncl00F54XjF+/17nI6fWybn2DyUzwdq3VZTtAZyAXFwPpuFbrxduHWQTpA0OQJki3SROCtO17+6b8rNhxYh3233b9Fum5U92GlrGD18Yg7QLpxAdRVzJvUgTiju7/3fF19wodt2CrSVUuNAhbuQvL/iNSDej6YSrew+Xj21qkK+/lFqu0SFdaswcTW7e9tYXk4rM6qWzHje0jSd9AkD4wBGmCdJs0IUjvo/seJ8rwbKoB2th0NVyUQdp9OeuXcBEKyi9uXwUHp7VBety92SLt+yRPWaB1QXpyI8Cey+mNVu2ZFmNH3+PCWqkXBGld/sZ73RKku+PqNs8H/ZvbR5C+qc6+/g/+FWgkC1erDuvWZ2jWgIdhYbkcSvPTt+tIx30f2xf3sXt6qQ3u+99Ch58uAsEddY41mNt8DQZ2AtpCRzG+YDlgi7oDa4nW0Dmzs+l+eKbT1mViPmAvNZabl1xY2L2SKzcsW8/679VxH0T9tLiuH8VrUYZtIkij0ayFctVh3foMzRqwP6wl2gLtybg7/ZKfnJ3K2aQICNZQNtbp02kQ0MCghTfrlP0/rdqFhooLLdcvfk0AEx9AOl2teMtywFbYfut2tuqPQetnbPvnmZwc6z54R0a1fbpYRbm8dfMoW4WvyxbrLHmvrpbry3zLuCrer/zRWbRa0+q8fQRpAMBaXOi1hKBf8qf+yqeJawYrAoL7ftfJ7qCoc+IDw806FpgLZcuZBeeOlk7GNq8IE7ctB2yNdZ9wrcZ+0H2++MFn0xdycVGUFfXK7k3FD74ywFr/6OryFpAHtly1zP/YLGZfjy98r+o655etzivnF4VuHYu2D/dHkAYArE+/nO17umhl9mX+S7r4Ij/XEFwEEfd9Ph5rFF5Qx5VVdLrS7UxkfKbB24378ruWA4AHwMWGDcbFhlxs2CbVvx8XG65u28eJ2y42LKfH1ip20ZVx5bZe0h3IYHI2nbbWtYuBFBdATeuUF0IturPBxC9j72Onq+eWKytj69p0saF996C96nzvEKQbjCBNkG4TgnQ9uw3SaKO2BWn7PKE97vu9Q9cOtEAmadKX/uPH8rjflyTNfDkAADdZuFp1WLc+Q3OGTaBFusFokd5si3SmYXrUG0ocarBORSJ7FniWSjLKJQhE8lykF8cSuuA9klx6Esc8L3xXaJGuZxct0pzubre2fBY5G9o+m/jeIUg3GEF6W0G6GM/joUiSaGDONEEXATtJLD6nbl6UJZLkscSRXwG2iiBdz66CtL0H2qONn0WCdPts4nuHrh1opbAXSp5qYNbY3PNlTpbLSHO1zUvzQHqBLwfgvnBWHdatz9CcAdcsaC0bAEOQRjuFGp+TREQDtcZmSXXchiyyFujQ8rTr62EvAACYp0+fuuHDhw++BG1HkEZrhHHRrWMqiIocLYFEcazDUIbWjUPD9DCOijK6SAMA1GAwkC+/fC+ff/5evv76j770DmkiiV3fnvbdxe59HR73U+tQiANBkEYLFRcTBu7CQhWEGqUBrGrRae5yAA7Vo0eP5PvvRT76SOT4+Pe+dFVh0VgzHMplnEvi0jUOAUEaLWQHtOvW5jCi5Rm4D053ow1evnwp33zzF/nuuz/Ixx//2ZfWEAbuehwcBoI0AKA2TnejbX766Qf55Ze/+akaLERbmMZBIEgDQIsdHR3NDOvidDfa5ueff5Bff/27n1qVfzCY/XAcBTLkGQUHg/tINxj3kea+tW1T3nqL+0ivrnqcsM/NOk5PT2X+G2A+Sz9//vzGvXXn+0L/n//zb/Lf/tv/J//pP/2/8o//+I+uzOosvZWatUgHscS5f3WZItWQIRqquXH7Q6v+7dp+H+n5ff3bb7+Vr776Sj799NOZOkv3dTTaJvZ1gnSDEaS5KX6btPXL+77K40Qdx8fHLkhbeF72TfDixWpB+r/+1y/kP//nf5PHj/8fV3br53FRkM4S6Y96tNQ1QFs/i3z3tM8m9nW6dgDAnrMf23WGUhmiLVCXLdLV8VVwuhtAGxGkAWCPPXv2zLWg1BnshGQZmG2w6bLMrHrCMgj+Wf7610/l0aN/8iV3sAcfWWaOhnI5LPpI273bAWDfEKQBoMXK8FwNzfPT8+xUaHXodDry2WefTU+RAkBbEKQBAAAqrO/sqsO69RmaM2wCQRrtkSXuXrVTaSppnbttZQuWswul3P1wk2LeojpVd80HADyY+bMutw3r1mdozrAJBGm0RjoSicK0eBCEyqR4slSWavjVoZ8Ur4m+FlXsQigrLx4UUdTry+NPtI4O1SCc2bpdX097SmKxnKujYT1J+pL4yretAwAA7BeCNFoi1dgcSNwLNfT69Jr7KG2vdgsui9b2GvdkZOFZw7BOiGZjSawl29WzB0cEElQeMW5CXSa3FmmX0kOJIl8ninQVQwnykW6BumUdQNMtOjW6bFi3PkNzBgCrI0ijHVw3jlySkY5nI9/ifAutW+Zt0QAeauQu2q+XCSW2FukgkWrvkcxu7aXvDRyCRadGlw3r1mdozrDMoqdgzk8DbcMDWRqMB7Js7qb4aT+RYBhr3HUTkgRD6Y36MupVXx/LJ1kksXXN0PlDsRAcue4g1orcy4t6sVh3j0CDc1Ssz1apgTkPIhfYdca0TqjLZoHWSjKJLocSaL1l62i76t+PB7I0Bw+paJ9Fn8W3b9/euJOLhedqWTlty+wj+3eyr7fLJr53CNINRpDe7cHMWo9dyF0p2WaSpWUrdSARfTTubRMHNGweQbp9Fn0WVw3S9kj5169f+5L9Yt+1G9/X7ZqY1L4lrAvgqt8v2JVNfO8QpBuMIL3jIJ0mro80mfhhbOKAhs0jSLfPos/iOi3Sts/sq80H6fIx+Kn0+yLDYaBFI8mlJ7Gl6iyVZGRJW+vYl890WkN3ZBeu2/U1gda1M576HaWrzPNAejrNV9X9beR7x4I0mun8/Py3q6ur3/QXvi9pB/v3lv/2daxbH81S/fvZ379t+31T8Xlsn2WfRYsM1WG+bN9tZV8fRr+FUfRbpMPw8rffLv+kr1Z++aff/uRGCsM//cmVD61eUXRdV/83ioZu+k+6Dls2ciO4r2X7+jq42BAAsFur3ned+603imaGmWG+DIuEEvkuHa41Wffn3C5+t1blwD4KsxekR8VtotwdoKxuYZUL3vFQCNIAgJ1a7b7rlfLMj5c3gQf2TBhbQE4kiEK7KZT1zyiCtZub675f7NuZPfDAOlSryHpz9DV0261Yo7gsRsPQR7rB6CPd9SVoi3v3VcPGbaePdCZJP5EstPu0h+6CrL5osNbgYFxwsPus+/I470seDyXKNEzn1pe0qIft2Ei/0T3E9QDts4l9nRZpNJrt4KsO69ZnaNaANlnvvuvzp8MBoCkI0gCAnbL7rifWjUMzc2jB2O61rtP2vKTqae6yfP50OAA0BUEaALBT7uKrKHKt0u6+utbFY1g8Tn8Y6fjlUFzvDV8eWlkc6XLcnhJAsxCkAQAAgBoI0gAAABV2Edqqw7r1GZozbAJBGu2RJfK4emWTXbxU525aC+9ta7fn6s/eG/cOdmEVd/MCgOZZdEH0smHd+gzNGTaBII3WsNtzRmE6Da+Zv2zJHg2e6tBPitdEX4sqxb1r+0nqpot6fXn8SXlvW1fJybRe3rP74pb3xnWlM8tbAL++Ry4AANh3BGm0RKqxOZC4F0o28kE291HaXoNYYo277jXuycjCr4Zgu5dt8aCp1NcbymUcSDB30ZPdnstuMGCt3tYqbWH9xvJhcTFVkI90a4D9s+jU6LJh3foMzRkArI4gjXZw3ThySez+WtmoaCG+jdYt8/Yqj2d1IdrYXQYit7gL14Viedf1Q7cD2FeLTo0uG9atz9CcAcDqCNJohTQN5YuhtTZb0M0qIbnKwm7ihiwqnp628PGs/t621VWEWjm3lmgtT9Iics8/3rVQuUcuAADYazwivMF4RPhuH9NqF/+Nev6+tnfKJNPAXETmQEPzSgvhFtW/H48Ibw4em9w+bf0sbutx+KldgO7GQ4nsGho3vr7yO6o3WvJdZRfC69qjXF8DfV3na8mu/9GNtAajXNfxhd2/vZhzrVz/AX3dbWJfp0UaKAXhdavznUIJIz2guIEQDQC4yV2Ibg8aKi9En7vovLzYPSkvSrfgrcsUF6kX48my2zvNrMvXtYvh87Ij4uwF7zffq0pDvt/Oyzgv3nPJ+tPsju1qGYI04NnT08jEAIBNmV6IXpq/6Ly82L1XhNfiDlDFkzy1wF2wHvdGGmbd0rNm1qVBOCouhO9p6LUovfiC+ev3Wsqe228X+ixZfzC6Y7tahiANANgtO43s7rle3OFm4+wUtK23zr3iK9tm951fuHi5fuAOMyFaWfeM2y46rwZvG89tH84D6S04XbrKugp3XzA/w4XoYOn679qutiFIAwB2rDyNHOmXtX1Rz50qnp5SdhMz86b3c6/UTfVLnVPcaKKZC9F1X7EbR2kM1f1v8T5zfZF6KkEUukwruh8vCsFFWWVd/kL4su78Be+3Z17bl4sfkP1RIMPYore5uf67tqttuNiw4ezih7ZdcFW94APtUb1Yh4sNm2MrF2BVLmyy0BqM+q4faZRZ+NUvfJ2vSdZdlGWtYtV5vby84Mr6nto568SdbrZGPBcYdDzS5fsylHha169DUg0KWiVMi4u1RMP1qOdCw5QFbDv97YqK+hb4i1k311/dNjsbfwi42LANF9ZywbzhYsMDd3R0JG/fvnWvbWQ7N0N7BrRJ0eprYdU1bGU6VE4V250NxFrHkmzpaeSwp8HWtb7piNXV8WU4xQ3M44L5TaFFuqEsPFf/NPPTh6xsFUC70SLdDNtpkS5bfTPNwCPpRZqFNYxGFnF7sQR5omOZBtRYhsFI+tV501t/6bKPPxH54tKVpXbaWYN3dFm0EPcTXSbUoG11cwvCdtsunQ6G01btxS3S163ldrGVXfRlp7wXrT+O8pntPpQ8Qos0t3psi03s6wTphmp7kAYMQfrhHX644BT3PII0QbotCNIHrM1Bep/Z36n0kH+vpmwH9h/hon0I0uzrbUGQPnCEof1T/uB56B8+TdkO7D/CRfsQpLnQvU0I0geqDNFlGCrH0VzzofWhQmxTtgOHgSDdPgRp9vW22MS+zl07GqwMP4QgAACA5qFFuqFoVdxP5d/pof9eTdkO7D9Od7cTLdK0SLfBJlqkCdINZQHIlGGoHEezlX8r85B/r6ZsB/Yf4aJ9NhEu9hH7evs0Ikjbjge04SB7l/nW3/npXWnKduAwEC7ahyDNvt4WjQnSr1+/9lNoo1evXhGkFUEah4hw0T6rhgs7tlQ1/ThT3d5yW8sym97Kvl55wE/on+a5DnuqZvHwoFT/zx4q5GdgIwjSaASCdKEpAbYp24HDQJBun2XhogydpfnDis0+Pz/3U83x7NmzhcdFU5bZ9PPnz7cQpMuneKbS74sMh4EWjcQebR9rqs50vj0MKLfHzMeRhFkqyciSty6jqbkI0rEEySfuKZpBFBdP4tR6BOv7I0ijEQjS16pfNA8ZXpuyHdh/BOn2WRQu3r59eyM4l+xwY/Ps9erqypc2h31HFdt//Q+YD9ZmOy3SiX/E/fXj6fO4eMx8ksdLH1efJolo0tYA7efbY+6leLXlxc+PXG3URZBGIxCkr9kH0Q7CD/3fpCnbgf23nSCdSdpPNFqYUKLhLYFgGy1vZSuhhpLytHuu7/HFMNKtwbJwcd2KW4TmcrxkZdaq2zTlts8HaVOW2fTWWqSt9dnvwGlfg3AUuX0uCHSvH80GaXtNtDzK84VBehhYANeldbAWbdzPJoL0Zu8jPT6V4+Pj6+F0LDI5kxMdt9Fy/snZpKi/iK/j6s8Zn/p1AgD2VpYkrlVtOLRBw0KaarS2GRqabcROb2uASHTCWuaSTzR0Z8V4Pynq2inxxAabdq9JsQ4L6bZM4qd0Xmrzi8k5GuL9dlzG+XQZLHYdOotxG2y8HGzaQkjTBlNs69F0uN7+6+mtCa4Db2TdNYq+HK5Lx7yiLNd9dm5ftHXY5yTsFa3RPUJ0U2zlgSzd8yt3eufqfO6+o91zV34x6PiCdYxlTIYGgL2Xa0aoZItKqNBXHUk1HAd2YZaGjigKdFzD9qg4la25W5J+6lcSSxxo6M6tv2kgIw3CFtKtXtwbadC2VWaSuz6q7g2WCwNN3YuiDarKAFoqp7caRDdk0bZufdujuX3P9XGO9CV2Z1mmFyCGRd9n98PO6lwO3VmamfnlGZMgIkc3yG6fbFhtnZaJnJ1UWq/nWqonZye+/FQjtNW1V2Ut1rRKA8DemgnRC1hXD03L0q+0EFtuLgQaJiqtebqysLJCq5enqaR28ZadP1+VhWgL00Bj2dmWkfthSY5ujq0EadcFYy4Yz5ucncrZpCODiwUt18Zary8G0tH4fHYmWu9cXC0rX1QfALAXwjiSvG9dN6wLR2LZ2LVCu24aOj9LR67M8ae0rTtp2teAbPWjeDp73l2nzmdZMNHArtvSHwXTC72AZrIW66IlG82x1a4dt3XhmEw0ZHe60rUqnY4G5lkdLVtUDgDYd5HEQ+u6oa/WuuZPd8fDSxlqYLbpKBoWwbY8pW3T+mqnvrXqzClvm3brtIKFp84zDecawt2gUV3ruGV1nZeun7a9l1sJAKxlt107KlxQnoxlbI3WGqpvufwQAIB7CDWIa7h2gyVoANiMhwvSg4F0y37SZ5MVWp670rUeHfSRBgAAW2S3RVt1WLc+Q3OGTWjGfaRdOJ7I4OJCat3QAw+KexVf4z7SODQ8kKV9qn+7uvfW3Ufs6+2ziX39wVqkyzt4uDtznI6le06IBgAAwP7YSIu0/YJDe7WltWIVtEjj0FRb6dAetEjTIt0Gm2iR3liQ5iDbLm08yK6CII1DQ7hon02Ei33Evt4+m9jXN9q1wzZm1WHd+gzNGQAAAPCQfaQBAAAOWdqXx/bAH3sA0fWDOrcjTYr3qLzn437xkCNsD0EaAABgK+xphMXDhLIk1Wl7mqYG3jJVZ/ZET3vKp5uYmZdpME4tFFfqptnc8guV7zmUyzi/oy7uaytB2vqcLBsAAADaoXwMfarh1sJ0IhLHEvdGLjzbo/ED/7TO+XmSZ5IHQ/lCRmKT6SgXGc3VuUsY6Irvflg+6ttJi/TTp0/d8OHDB18CAGitXZzudq13frzEqW/sXNE6bI+ktzir2Vhye1R9HkhPM240jEUsaOuOOT+vFPZ0l9XyXHRkSZ2lLERbmMbWbD1IDwYD+fLL9/L55+/l66//6EvvwMEOAA7Y3Onu6eltO8pnGhr80d6V6/eBfSdoPTvVbdPF3EWnwX29ct4nWrbwi4NT39itMLbAnEgQhUUDcZ67YJ2lIxGfc+3x9dV5U5qkQ11WerrfLqszo2wF12EUyNBSPLZm60H60aNH8v33Ih99JHJ8/HtfuioOdgBwiLJRql/2qYRRpIf6SGI91ge5ncIO9VUDsNZxp7ItNgexxIGG6ryn9QIZ6XfB4tPgNm3fFRZKAl0sFs0dt+PUN7Yp0n3S7YOhxMNYd/VYg22kxcW+adNRpDnHKs3P8y3ZbtnLy2J8po5+Dqx12g36OSnfS9d3qbnJspPVxXZtPUi/fPlSvvnmL/Ldd3+Qjz/+sy+tgYMdAByMMAj0e7/sG9qXvoaBUtgL3elrO5Xd82UShLqMSxXOstPga7PvFU59Yy/pZ0J/iEZuuP5sYLd20kfa/PTTD/LLL3/zUzVwsAOAw1ENxf5/p106rFOoP5W9zJ2nuG39GrQXn8fk1DeAzdhZkP755x/k11//7qdWxcEOAA5OeQrac1347JT15VCmJ6KDyOXo6entUJdxM60biBYsOw2u9dx3hb0OAxemOfUNYFt2EqSD4J/lr3/9VB49+idfcgcOdgDQUtaAMnL9m+1r4H449Q1gu7YSpOcfKd3pdOSzzz7j8dIAgDvYReZFKzPwUBY9B2PZsG59huYMm8ilO+vaAQAA0HTVhkCGwx42gSANAAAA1ECQBgCsZNGp0WXDuvUZmjMAWN3Rb8qP1/LixQt58uSJdLtdX4I2KE+JvHv3Tt6/fy9v3rxx021n/z3ss/Dq1asH/W/SlO3A/qse49c5FWqBbFOnTrFb1b9dm47x5b7+7NkzX4I2qbuvb7RF2j54qw7r1mdozgAAAAC6dgAAAAC1EKQBAACAGgjSAAAAQA0EaQDADtmTC/vSf/xYHvf7ktiju+0R3vpSlWmdZK5sKvP1Fyx3N31/fd++GxJJfelNqSRLNwAACs0M0mnfHWDtQFfvOOYPgGsfZFc7wAMA6rInFw4ljgL/GuqRN/fz7BicSD9Jr0tSDbtZUV4EWz/+iQ55UcvV0SHR5YrDdXEsT+z4PXcAz3TZXN93OLQhlqjynjPLJrPbRKgGsEhDW6SLA+0w1gOsO5bNHegyC8o+6LpJfxB1B9vrA2B5cF79ILv8AG/rSMp1uNeksi6brq4HALCyvDjSupDbi/XYH0lg5SM9TktPglEiEscS90Z6HNbjtB6jA53ulUdoWz6w+bk7Ftt6xB3DdVZxCJ/SqhJUHj9e1LX3FEn6enwvl43dFkznF+/tigBgqqFBWsPpJ4/l8SeZhHosmz/QSRjp5FCCfFSclvMH0Z472F4fAMuD8zoH2Rsq69Ajt8SBhvi8595jNF0XB1kUTk9P5fj4WN6+fetLHkZTtgNYhzvMVkJuqsfUKApdeW4NH3kgPX94v00uYRHEF6iu39i6C4Eulctobtl13xtAuzS3RfqLS7m8jDSopjcOdK77hR1h59x28Kxatd5CehQOK0diDrIoHR0dSfl4I3u16YfQlO0A1hVF1rNPj6d23LfpL2LJ+30d8Wcn89yVuzSsx91l7SCRHovt7OH1mcNrYRy5ddoZSZsfTN8z0QWtsWR2WQvyM+8NABXNbZG2sGytz3pkvT64Fge6ggbqub5vtx08q1attwoOsqgqM+tDZ9embAewTGhnBX2bxHQ8sn7LeszXsOu614WhxMOhHmeL7h5RHFumtgV8vWK56fJWbiO+ftyLXONLZo0dbnDR2K0z1i+WWNcXTt/Tymy2Xza+nFnX9L0BoGKjjwhf56l3jXh8bJZIMipakosQHLhgjNu19fGxdylbgi28Xr/e6+NVS1O2A4dhL4/x7thuI3p81xDMUX09PCKcR4S3USMeEb437CCb+BBtB1nX6m0Dh1vcX1PCKyEarRXGrrU5JkQD2LJ2BmkOstgCC6wWXB9aU7YDAIBD184gDWxZ0Rr88Gm2KdsBAMAhancfadRCH+nlqv2TzUN1q2jKdmD/VY/xaIfqdzN9pNEWdff1jQZptAdBerHZC/0eLrw2ZTuw/wgX7UaQRls0IkjTIt0O226Rtn0KMPxAe3iEi3YjSKMtCNLYmV0E6devX/sptNWrV68I0g1AuGg3gjTaou6+zsWGAAAAQA20SGNttEhjF2iRbgZa6dqtjS3SaK86+zpBGmsjSGMXCNLNQJBut7YFaeAwgnTal8epPdw11P/LROKhxHkqaRDJ/MMHs6Qvo57OL8szrSdz9abrs0eBR/LFcMGDWBYth4UeIkhPzk7k5Gwi0j2Xq3N/h5jxqRyfjqUzuJCLQaco26Dx6bGcSuX9sFME6WYgSLdbm4L0ptl/O8tGHMsOW0P7SIcSaXgeDmPp+WCbaQQux1INz0mqwTfVkG3y4pHfmZun458kUs4qlOsbymWca12dqcE5ceuxitXl/LjVQUOM5cxCtBsd65Rnofrqaish2t5T3woAAGCphgbpMsym0/gseRGlMy13LdSRFpUzg1jinmh9kSgKdDJe3rIcBroSXTCMJNb1BPlIUgvafrlgZOu39Y00ZPtl8LBceO7I4Hyg/1sJuJMzOTk+llObttZpHS+GU61j0ydyclIpK5ZyLc3Tuidn4iL6zPK2nK/vW70BAADmNbhFWsOspmXrjlGV67z5srW4EB24LiH99GZS1rwuubV254H07vVG2JSxJedO150i63b89BLWzePq6lyKzhgTnb7y00WrtnUROR1rKL/w5RrGT8vWblUsfyEXF34d1a4kAAAAFQ3tI51IYq3MobVAF32geyPfFzpPpK8hNxTryvGFxPrqyvW1P+rJsDeSfhJIXO0HXekjbS3RQw3o1j0kDbRGkkl0OZQo0+VtuSiXRNcfWft375aW7RbbbR/psZxWWpMLXTn3Ifjk5Ew651dyLkXLcdfGLfe6luSJBuYLGXQmcnZyImedc1fvdOyX16Bdll91x7PLl+9LkH4w9CtshvIYj/aij3Q99JFuh/29a4cG30SDczy9yrAqkyzNfbcQDcWk4Y3aaZD2XSumAdeHZ03IcqHh9/Yg7ac718tYvWLUAnYRlie2Lq1DkG4WvnyawT6PAJ/F9RGk22H/grQL0DYSSC9ecPcNbN3ugrRvMZ6ULcjGl8lALs5FTu8I0lMdrX9hfaxtlu9XbcqgPB/Y1bQeYfpB8OUDYJ8RpNth/55sGFrf6aL/NCH60FX6MvuSaZmFYgvHVz74Wtgtx6fK5X19X2ph2ZXZUC6wYPlpPUI0AABYgEeEAwAAADXwZEOsbRddO7i4CVzgBGCf0bWjHTYapNEeuwjS7FPts839CgB2iSDdDrRIY227apFmn2qXbe9XALBLBOl2oI80AAAAUANBGgAAAKiBII29YKf9lw0AAAAPgSCNvfT06VM3fPjwwZcAAADsVkODdCZp0pd+34ZE0swXV2Xp4nIcvMFgIF9++V4+//y9fP31H33pHdJEEttf0r48dvuVvaa6pwEAANTTyCCdJYnkvaEMhzbEEtkjDDU4JxquE5eeLWhrMPrEQrYfdykJbfDo0SP5/nuRjz4SOT7+vS9dVShRXOxbl3HOfgMAAGprZJDONdsELjwnruXQZZ0wklgDUJCPJLUwFAUSxLEEo0R0hsS9kYZstzgO3MuXL+Wbb/4i3333B/n44z/70hrCQPex3E8AAACsp5FB2oVoE8YyjIqsk1lXj/RmUrbQnWt5mgfS01yE9vjppx/kl1/+5qdqsB3LwjQAAEANjQzSYRxJbi3RGpCTtGgxLP83LTtGW9rW+UEUFo2Kee7roC1+/vkH+fXXv/upVVX6348CGcblrzYAAID1NPRiw0ji4VDiyF4vXau069caxTK8HOpcZa3VOiO0Mg3eUez7UqMVguCf5a9//VQePfonX3IH3U9cZo6Gcun63uug+w0AAEBdDQ3SwCx7dHR16HQ68tlnn00fKQ0AALBrBGkAAACgBoI0AAAAUANBGgAAAKjh6Dflx2t58eKFPHnyRLrdri9BG5R9k9+9eyfv37+XN2/euOlNYJ9qr23uVwCwS3Ycs++xV69ecSw7YBsN0utc+PXjjz9yodieqv7tth2k2afaY9v7FQDsEkG6HejaAQAAANRAkAYAAABqIEgDAAAANRCkAQAAgBoaGqQzSft96bshkSTpS5L5WXfIltVNdT13rmP2fVNfurIslXTF7cSOpX153C//oqn+fdf+6wIAAMy4M0gfHR3NDLuQJYnk8VCGQxti6VlhboE60ajramgutukytRbT/SSVvCzR4Lwo1LpyC9Vad372/PtGlfVa3Sz1y/jAPLsuv02f2PvObt+03vwbYodCicJU9E91Tf+O7kea31Hs75SUf0/3umx/AwAA0CBtt2dZNlhwtpvjVYddBOtc80oQ+olSEEusidrCjAVeiW165IKRC8C9WIZxJIHVHWk40vgdza/D6Mpzt678RjCaf9/yfTRTS2ItmHnug7q+2sjMukSiKNDNjCUYzW7ftN6i7cHu9IYSpP3rMw1hpH8mLctHRZnbAfTvFGjAzns6L5DRgv0NAADA/IPd43DZUKrm5flgvQ03QvQcyzt5mkqaB9LT5DwfgHWWhtr1U+v8+9p6C4GEFp791F3mtw/NEQ0jSZPiL2ndgPq2s8zTHSGs7Az8PQEAwCL/YDcKXzaUysBsgboM1dXxTQvjSPK+nXK3U+/JjQBrITlzLcJFuI0i6wKrQScpunZEX8Ru+XUbD+ffN5iu15qbY4k0RNl7LOoW4lj40mWDue1Dk0QS655h+0bxt8n1T7bwrzk1v78BAACYO59sWO2+UVYty2y6uU+hyyRLy+ATLGmhXqUO5vFkQ2wDTzYEcEjsOGbfY9YwybHscN15saGF5XIozU83UyhhFGk4tmFZQF6lDgAAAHAT95EGAAAAaiBIAwAAADUQpAEAAIAa7rzY8C7VC8PQHru62BDtwsWGAA4FFxu2w0aDNHdYaAfu2oFt4K4dAA4JQbod6NoBAAAA1ECQBgAAAGogSAMAAAA1EKQBAACAGpoZpNO+PO73pd9PJNHXJLOyVFJ7nZMlfn4pW1DPrS8tJ3S95fjdbqx/FTe2NZVk7ZVgszLdDWyfKvartPwbLdpfqlLdB23+dJ8s9iX+mgAAoKEt0qFE8VCGw1h6/sndmeTFiAUiC7cWhMoElGvYSRKdY/N0/BMNSjNJR9cXapit5OdMl3dVfJDKLDDZoJXcuFufN12/8e/hg7HVTcuw5d3Y1qScxkPJ9G+Wu32q2K8C9zcq9xcNyOUfcGmwLvfJoVzG+fTvDwAA2quhQboMq+k0kkpexFMLRKKBJo60qJwZxBL3ROuLRFGgk7EGZz+v1BtKkPZlmqV14WJxfbURXb9bT6CBO+9JHAcyKsOSlesbjCxku/e39xsVwdy2y+ZX329+W3VdeFjuz3vjb6Th2O0v+jcS/UGkxelI/3Lz+868UP+eWbnzAQCAtmpwi7SF10jmI6iFn7qxNBpGGtDvCECatsKZxFWh4WmkgSy31vA8kN4dG3KfbcVmLfuTlsJe6P6uufREf6PdzkK0hWkAANBqe3exYaT5xVqqZ7peVFliKrtt3BBJLBqCdcxyUOrWc1d/19y1jtuQRRruo7BojJy2aC9357ZiZ0L9UZZbf3vdN+zvMf3blftL6E9plH2Jbii66bg+1qNAhjOnIAAAQBvt75MNs0SSkXXBWBRoMsnSMugGEt3o57Fpu36/h3WYTzbMJOmPpDfUQN2iv2WT8GRDAIeEJxu2w961SLsAnViIDqS3tFUwlDCKNATZsIsgtOv3w2ZZa/PI9a3XvyR/SwAAsJL9C9Kh9Z0u+k8Tc7AZRZ98cjMAAFjH/gVpAAAAoAEI0gAAAEANG73YEO2xq4sN0R7VC0W52BDAvuNiw3bY37t24MHs6q4dz5498yVoG4I0gH1HkG4HunYAAAAANRCkAQAAgBoI0gAAAEAN9JHG2nbVRxrtRh9pAPuMPtLt0MwgnfblcWoPaLbnrwylN+rLqDeUpQ8yXEWaSBLEEufX684lki+GPNhlXbsI0oDhywfAviJIt0NDg7QPvWEq/b64VxekJZVkZClY50WhZFov1+p5bo8Lt0BcPOo5l57E86l7GqTLdWtZlkh/1JPhvRJ6+2w7SLfd0dGRHxO558cTAPBACNLt0Ng+0pkG5jRJJYwiX6LCSAPyUIJ8pJFa5ZnkFop7uSRJprk40dRt0yPRRe8WBvpGFsWBZiFAAwDQfI0N0mEQSKShOa7k6CzpSz9dnpA1V0uu81Nroba+G3exEG1hGmgIa40uQ7S9VlunAQBAszT3rh3Bze4WRdtxLmmqiXmByLp7FH09fN1FrPuHBvK+DqOAbh0AAACo5YDv2pFJlpaBOnAhG5tBH+ntKlulq63TAID9Qh/pdjjg+0iHrn915AZCNPYLXToAAGg+HsgCNEjZCl0OBGoAAJqLIA0AAADUQJAGAAAAatjoxYZoDy423J5qd457fjwBAA+Eiw3b4YDv2oFt4a4d22efK/6bAsD+Iki3A107gIaxg+/r169dmAYAAM1FkAYAAABqIEgDAAAANRCkAQAAgBqaG6SzRB73Uz+h0lTSzI+rLOlLYtNz5StJE79sX9+jL30d7L3WXQ0AAADaq7FBOh2JRGFaBF6VSV68aghOyyBs0/PlSRmIM83LNn1bPA4liocyHA7lMs7vqAsAAABca2iQTjUeBxL3QslGPtzmPjLbaxBLHLrSm+W9IhBnGqIltumRaLa+Wxho9i5COQAAAHCXZgZp111DA/FIx7NRrS4Xmqslt/XkgfQ0I9/JQrSFaQAAAGAFjQzSaRrKF8NY4jiWYZRJ2Si9jigKiwbmPPedPxax7h9FH+n+KJDhtJkbAAAAuF1LnmyYSZaWgTpwIRv18WTD7eJpWACw/ziWt0Nz79qxUaGEUaQB2gZCNAAAAO6vJUEaAAAA2CyCNAAAAFADQRoAAACoYaMXG6IdqheJcrHh5nGBCgDsP47l7bCxIP3s2TNfgjYhSG8eB18A2H8cy9uBrh0AAABADQRpAAAAoAaCNAAAAFADQRoAAACogSANAAAA1ECQBgAAAGogSAMAAAA1EKQBAACAGgjSAAAAQA13Bumjo6OZAQAAAIAGaXuE5bLBgrM9QLw6EKwBAAAADdL2HPhlQ6mal+eDNQAAANBGR8+fP18ah9++fTsTlstAbWXluC4vT548KSbQSu/fv5c3b974KdyXnQ2yH7KvXr3ivysA7CmO5e1w9Jvy4wtVu2+UVcsym37x4oUbR7txkNgcDr4AsP84lrfDnUG6KRYF+ofQlO14SPbfoK3/9l3g4AsA+49jeTvs1e3vmhLe2hwiixA9+4MCAACgjfYiSFdbQO31oUJcU7ajKQjTAACgvUT+f1qLVQZdTWa4AAAAAElFTkSuQmCC;fillColor=none;" vertex="1" parent="1">
          <mxGeometry x="-620" y="-514" width="722" height="514" as="geometry" />
        </mxCell>
        <mxCell id="aVqaGwzXdZVDVJxjxJ1D-33" value="" style="html=1;rounded=1;absoluteArcSize=1;arcSize=10;whiteSpace=wrap;fillColor=none;strokeColor=#5fd80e;strokeWidth=3;" vertex="1" parent="1">
          <mxGeometry x="-40" y="-230" width="80" height="20" as="geometry" />
        </mxCell>
        <mxCell id="aVqaGwzXdZVDVJxjxJ1D-34" value="" style="endArrow=open;html=1;rounded=0;align=center;verticalAlign=top;endFill=0;labelBackgroundColor=none;endSize=6;strokeColor=#18e60a;strokeWidth=3;entryX=1;entryY=0.5;entryDx=0;entryDy=0;exitX=0.25;exitY=1;exitDx=0;exitDy=0;" edge="1" target="aVqaGwzXdZVDVJxjxJ1D-6" parent="1" source="aVqaGwzXdZVDVJxjxJ1D-33">
          <mxGeometry relative="1" as="geometry">
            <mxPoint x="-50" y="90" as="sourcePoint" />
          </mxGeometry>
        </mxCell>
        <mxCell id="aVqaGwzXdZVDVJxjxJ1D-36" value="" style="html=1;rounded=1;absoluteArcSize=1;arcSize=10;whiteSpace=wrap;fillColor=none;strokeColor=#5fd80e;strokeWidth=3;" vertex="1" parent="1">
          <mxGeometry x="-220" y="-180" width="80" height="20" as="geometry" />
        </mxCell>
        <mxCell id="aVqaGwzXdZVDVJxjxJ1D-41" value="" style="html=1;rounded=1;absoluteArcSize=1;arcSize=10;whiteSpace=wrap;fillColor=none;strokeColor=#5fd80e;strokeWidth=3;" vertex="1" parent="1">
          <mxGeometry x="-420" y="-360" width="80" height="20" as="geometry" />
        </mxCell>
        <mxCell id="aVqaGwzXdZVDVJxjxJ1D-43" value="" style="html=1;rounded=1;absoluteArcSize=1;arcSize=10;whiteSpace=wrap;fillColor=none;strokeColor=#5fd80e;strokeWidth=3;" vertex="1" parent="1">
          <mxGeometry x="-610" y="-160" width="50" height="20" as="geometry" />
        </mxCell>
        <mxCell id="aVqaGwzXdZVDVJxjxJ1D-45" value="" style="endArrow=open;html=1;rounded=0;align=center;verticalAlign=top;endFill=0;labelBackgroundColor=none;endSize=6;strokeColor=#18e60a;strokeWidth=3;entryX=0;entryY=0.5;entryDx=0;entryDy=0;exitX=0.75;exitY=1;exitDx=0;exitDy=0;" edge="1" parent="1" source="aVqaGwzXdZVDVJxjxJ1D-36" target="aVqaGwzXdZVDVJxjxJ1D-7">
          <mxGeometry relative="1" as="geometry">
            <mxPoint x="-193" y="-160" as="sourcePoint" />
            <mxPoint x="-413" y="95" as="targetPoint" />
            <Array as="points">
              <mxPoint x="-370" y="70" />
            </Array>
          </mxGeometry>
        </mxCell>
        <mxCell id="aVqaGwzXdZVDVJxjxJ1D-46" value="" style="endArrow=open;html=1;rounded=0;align=center;verticalAlign=top;endFill=0;labelBackgroundColor=none;endSize=6;strokeColor=#18e60a;strokeWidth=3;entryX=0;entryY=0.5;entryDx=0;entryDy=0;exitX=0.75;exitY=1;exitDx=0;exitDy=0;" edge="1" parent="1" target="aVqaGwzXdZVDVJxjxJ1D-9">
          <mxGeometry relative="1" as="geometry">
            <mxPoint x="-203" y="-160" as="sourcePoint" />
            <mxPoint x="-363" y="85" as="targetPoint" />
            <Array as="points">
              <mxPoint x="-413" y="70" />
            </Array>
          </mxGeometry>
        </mxCell>
        <mxCell id="aVqaGwzXdZVDVJxjxJ1D-47" value="" style="endArrow=open;html=1;rounded=0;align=center;verticalAlign=top;endFill=0;labelBackgroundColor=none;endSize=6;strokeColor=#18e60a;strokeWidth=3;entryX=0;entryY=0.5;entryDx=0;entryDy=0;" edge="1" parent="1" source="aVqaGwzXdZVDVJxjxJ1D-41" target="aVqaGwzXdZVDVJxjxJ1D-8">
          <mxGeometry relative="1" as="geometry">
            <mxPoint x="-470" y="20" as="sourcePoint" />
            <mxPoint x="-510" y="100" as="targetPoint" />
            <Array as="points">
              <mxPoint x="-480" y="-90" />
              <mxPoint x="-430" y="90" />
            </Array>
          </mxGeometry>
        </mxCell>
        <mxCell id="aVqaGwzXdZVDVJxjxJ1D-48" value="" style="endArrow=open;html=1;rounded=0;align=center;verticalAlign=top;endFill=0;labelBackgroundColor=none;endSize=6;strokeColor=#18e60a;strokeWidth=3;entryX=0;entryY=0.5;entryDx=0;entryDy=0;exitX=0.5;exitY=1;exitDx=0;exitDy=0;" edge="1" parent="1" source="aVqaGwzXdZVDVJxjxJ1D-43" target="aVqaGwzXdZVDVJxjxJ1D-10">
          <mxGeometry relative="1" as="geometry">
            <mxPoint x="-511" y="-130" as="sourcePoint" />
            <mxPoint x="-450" y="335" as="targetPoint" />
            <Array as="points">
              <mxPoint x="-420" y="170" />
            </Array>
          </mxGeometry>
        </mxCell>
        <mxCell id="aVqaGwzXdZVDVJxjxJ1D-49" value="" style="html=1;rounded=1;absoluteArcSize=1;arcSize=10;whiteSpace=wrap;fillColor=none;strokeColor=#5fd80e;strokeWidth=3;" vertex="1" parent="1">
          <mxGeometry x="-460" y="-120" width="50" height="20" as="geometry" />
        </mxCell>
        <mxCell id="aVqaGwzXdZVDVJxjxJ1D-50" value="" style="endArrow=open;html=1;rounded=0;align=center;verticalAlign=top;endFill=0;labelBackgroundColor=none;endSize=6;strokeColor=#18e60a;strokeWidth=3;entryX=0;entryY=0.5;entryDx=0;entryDy=0;exitX=0.25;exitY=1;exitDx=0;exitDy=0;" edge="1" parent="1" source="aVqaGwzXdZVDVJxjxJ1D-43" target="aVqaGwzXdZVDVJxjxJ1D-11">
          <mxGeometry relative="1" as="geometry">
            <mxPoint x="-605" y="-145" as="sourcePoint" />
            <mxPoint x="-340" y="200" as="targetPoint" />
            <Array as="points">
              <mxPoint x="-440" y="165" />
            </Array>
          </mxGeometry>
        </mxCell>
        <mxCell id="aVqaGwzXdZVDVJxjxJ1D-51" value="" style="endArrow=open;html=1;rounded=0;align=center;verticalAlign=top;endFill=0;labelBackgroundColor=none;endSize=6;strokeColor=#18e60a;strokeWidth=3;entryX=0;entryY=0.75;entryDx=0;entryDy=0;exitX=0;exitY=0.75;exitDx=0;exitDy=0;" edge="1" parent="1" source="aVqaGwzXdZVDVJxjxJ1D-43" target="aVqaGwzXdZVDVJxjxJ1D-12">
          <mxGeometry relative="1" as="geometry">
            <mxPoint x="-605" y="-73" as="sourcePoint" />
            <mxPoint x="-320" y="340" as="targetPoint" />
            <Array as="points">
              <mxPoint x="-630" y="20" />
              <mxPoint x="-440" y="237" />
            </Array>
          </mxGeometry>
        </mxCell>
        <mxCell id="aVqaGwzXdZVDVJxjxJ1D-52" value="" style="endArrow=open;html=1;rounded=0;align=center;verticalAlign=top;endFill=0;labelBackgroundColor=none;endSize=6;strokeColor=#18e60a;strokeWidth=3;entryX=0;entryY=0.5;entryDx=0;entryDy=0;exitX=0.75;exitY=1;exitDx=0;exitDy=0;" edge="1" parent="1" source="aVqaGwzXdZVDVJxjxJ1D-49" target="aVqaGwzXdZVDVJxjxJ1D-11">
          <mxGeometry relative="1" as="geometry">
            <mxPoint x="-570" y="-40" as="sourcePoint" />
            <mxPoint x="-293" y="355" as="targetPoint" />
            <Array as="points">
              <mxPoint x="-400" y="230" />
            </Array>
          </mxGeometry>
        </mxCell>
        <mxCell id="aVqaGwzXdZVDVJxjxJ1D-53" value="" style="endArrow=open;html=1;rounded=0;align=center;verticalAlign=top;endFill=0;labelBackgroundColor=none;endSize=6;strokeColor=#18e60a;strokeWidth=3;entryX=0;entryY=0.25;entryDx=0;entryDy=0;exitX=0.75;exitY=1;exitDx=0;exitDy=0;" edge="1" parent="1" target="aVqaGwzXdZVDVJxjxJ1D-12">
          <mxGeometry relative="1" as="geometry">
            <mxPoint x="-442" y="-100" as="sourcePoint" />
            <mxPoint x="-340" y="255" as="targetPoint" />
            <Array as="points">
              <mxPoint x="-420" y="230" />
            </Array>
          </mxGeometry>
        </mxCell>
        <mxCell id="aVqaGwzXdZVDVJxjxJ1D-54" value="" style="html=1;rounded=1;absoluteArcSize=1;arcSize=10;whiteSpace=wrap;fillColor=none;strokeColor=#870ed8;strokeWidth=3;" vertex="1" parent="1">
          <mxGeometry x="-230" y="-225" width="50" height="15" as="geometry" />
        </mxCell>
        <mxCell id="aVqaGwzXdZVDVJxjxJ1D-55" value="" style="endArrow=open;html=1;rounded=0;align=center;verticalAlign=top;endFill=0;labelBackgroundColor=none;endSize=6;strokeColor=#ab0ae6;strokeWidth=3;entryX=0.346;entryY=0.143;entryDx=0;entryDy=0;exitX=0.75;exitY=1;exitDx=0;exitDy=0;entryPerimeter=0;" edge="1" parent="1" source="aVqaGwzXdZVDVJxjxJ1D-54" target="aVqaGwzXdZVDVJxjxJ1D-1">
          <mxGeometry relative="1" as="geometry">
            <mxPoint x="-10" y="-200" as="sourcePoint" />
            <mxPoint x="-230" y="55" as="targetPoint" />
          </mxGeometry>
        </mxCell>
        <mxCell id="aVqaGwzXdZVDVJxjxJ1D-56" value="" style="html=1;rounded=1;absoluteArcSize=1;arcSize=10;whiteSpace=wrap;fillColor=none;strokeColor=#870ed8;strokeWidth=3;" vertex="1" parent="1">
          <mxGeometry x="-220" y="-195" width="50" height="15" as="geometry" />
        </mxCell>
        <mxCell id="aVqaGwzXdZVDVJxjxJ1D-57" value="" style="endArrow=open;html=1;rounded=0;align=center;verticalAlign=top;endFill=0;labelBackgroundColor=none;endSize=6;strokeColor=#ab0ae6;strokeWidth=3;entryX=0;entryY=0.25;entryDx=0;entryDy=0;exitX=0.75;exitY=1;exitDx=0;exitDy=0;" edge="1" parent="1" source="aVqaGwzXdZVDVJxjxJ1D-56" target="aVqaGwzXdZVDVJxjxJ1D-2">
          <mxGeometry relative="1" as="geometry">
            <mxPoint y="-170" as="sourcePoint" />
            <mxPoint x="95" y="100" as="targetPoint" />
          </mxGeometry>
        </mxCell>
        <mxCell id="aVqaGwzXdZVDVJxjxJ1D-60" value="" style="endArrow=open;html=1;rounded=0;align=center;verticalAlign=top;endFill=0;labelBackgroundColor=none;endSize=6;strokeColor=#ab0ae6;strokeWidth=3;exitX=0.5;exitY=1;exitDx=0;exitDy=0;" edge="1" parent="1" source="aVqaGwzXdZVDVJxjxJ1D-33">
          <mxGeometry relative="1" as="geometry">
            <mxPoint x="-182" y="-200" as="sourcePoint" />
            <mxPoint x="40" y="290" as="targetPoint" />
            <Array as="points">
              <mxPoint y="290" />
            </Array>
          </mxGeometry>
        </mxCell>
        <mxCell id="aVqaGwzXdZVDVJxjxJ1D-61" value="" style="endArrow=open;html=1;rounded=0;align=center;verticalAlign=top;endFill=0;labelBackgroundColor=none;endSize=6;strokeColor=#ab0ae6;strokeWidth=3;exitX=0.25;exitY=1;exitDx=0;exitDy=0;" edge="1" parent="1" source="aVqaGwzXdZVDVJxjxJ1D-54">
          <mxGeometry relative="1" as="geometry">
            <mxPoint x="10" y="-200" as="sourcePoint" />
            <mxPoint x="50" y="300" as="targetPoint" />
            <Array as="points">
              <mxPoint x="10" y="300" />
            </Array>
          </mxGeometry>
        </mxCell>
        <mxCell id="aVqaGwzXdZVDVJxjxJ1D-62" value="" style="shape=image;verticalLabelPosition=bottom;labelBackgroundColor=default;verticalAlign=top;aspect=fixed;imageAspect=0;image=data:image/png,iVBORw0KGgoAAAANSUhEUgAAAOAAAAFQCAYAAACmkHIgAAAAAXNSR0IArs4c6QAAAARnQU1BAACxjwv8YQUAAAAJcEhZcwAADsMAAA7DAcdvqGQAABCDSURBVHhe7d2/bhvZFcfxo7yA9QCpXBGkkXZVuAy2cgAWIlOahe28gGAQCwQ0gRRCoDfwFnQZUgX3FRYCVoWrhUnoFbbZlYEE2D+Fc86de6mhREqkLerMn+8nmOX843Aozo/3znhOuPdJCQAXf4qPABwQQMARAQQcEUDAEQEEHBFAwBEBBBwRQMARAQQcEUDAEQEEHBFAwBEBBBwRQMARAQQcEUDAEQEEHBFAwBEBBBwRQMARAQQcEUDAEQEEHBFAwBEBBBwRQMARAQQcEUDAEQEEHBFAwBEBBBwRQMARAQQcEUDAEQEEHBFAwBEBBBwRQMARAQQcEUDAEQEEHBFAwBEBBBwRQMARAQQcEUDAEQEEHBFAwBEBBBwRQMARAQQcEUDAEQEEHBFAwBEBBBwRQMARAQQcEUDAEQEEHBFAwBEBBBwRQMARAQQcEUDAEQEEHBFAwBEBBBwRQMARAQQc7X1ScbywXr58GcdQd2/fvo1j1VCaAJ6cnMQp1NXR0VHlAkgXFHBEAAFHBBBwVL4ATnuyv7+/NPSmcVlBTXu6n0XfSbgobQvYHl3K5eWljNrZAV7c43sqU7KHNUrfBW2PRqIZlIuLizAdWpvUOh4cSzZXlx8fXM3XtGbTB3JsK1wcy0FqSUMLeyC9Xlq/p+PxeTqeZelCjg/SvHXPs23bevE5tpxWENdU4BywIY1GFkALVW/akP65tY4aTA1WzxKmB/+BPqZW89KazVvpthqjuJ6GtXG+GLfW7OK4p+Fqyyi1wMcp6PF5533dq4uwbv88+4LQF9/gdVE3FQigHvR69Dc0hVkrmAVyKZhhflvaGx//DV03bCSwbdvG0pxse1PppdbPXiMsic/LrQvcpvQBnPasi5cd+CEoMZD5YGay1mulRYC2kbWAoUW11jbOBbZR2gCmc73e1IJwLn1rePrn2iVM52caTO32neuCbP7Vc+xcrNHva2jiuto93abFao/s9bIWMG1vvdjycg6IFbgVDaXBrWgA7lVpWsCnT5/GKdTV2dkZ1RAeUgDbm1/GREU8evQoPL57944AeskHMH0gm/j48eNW66NY8p9fVQPIOSDgiAACjkobQOuerBuAsqhMC/js2bMwvH//Ps4Biq8SAez3+/Ldd2fyzTdn8sMP/4xz7zCZyGQWx4OJDIdLM4Cdq0QAHz9+LD//LPLVVyL7+3+Oc283k/libDLsavjSNPBwKhHAV69eyY8//lt++umv8vXX/4pz7zDPIjgbDkUGYxkMmtl84AFV5hzQ/PrrL/L77/+NU5uZS0uIHrxUKoC//faL/PHH/+LUZjqavuHQzv+G2hkFHlZlAths/k2+//4fej74lzjndi3rdrZ0pDOQ8aCjXdAP+mgzgIdT2gDaLUr5wQpvX79+vbh1CSiDSnVBgbIhgIAjAgg4oh4QhZbO6akHdEQ9YD3lPz/qAQHcOwIIOCKAgCMCuBPc1IbN1DeAk6486Xalq8OT7mR1ZGbXawY3MBtKdxjHk8lQKDXEKjVuAVvSGYxlPB7Lh8E8K8bVwA2tNjCkzuoENTh/H2oI4/jKFGXLukMLsY1PZD45XR3cxfaXx2eT+AWwCPxtr4cqoQtqWk095uf6aDdlj6U51wBZQDtNaQ4G0jy1msGBDA5Ps/DkZPWEdkO3yLA711B3dBhIZ8V93RbOpt0E3lkel/k8lgfro46kba56PVQLATQhfE098LVLqq3RdXNtiOb2f2Exb8rhteJBW5ZpamTnWUu2RidLqbaWs6Xx6257PVRLjQNo3bzsHLB72gylSKkVmqT+Y1ObMQ1CU5szy+hVS3WlY62ZnkNal9FKm24raJpp1zRV/+bHrQG2FtHqEu2VO7e8HqqFO2G2pmd6kxSMZgjLTZusg7twJwxWaOmpop7nhWFdsDZZByCAgCsCCDgigIAj6gFRaFW/CMNVUBQWV0EfyN7e3mJIrk8D6+SPn7IdM+4BtD+YNcJpSH/E/DSQl46Rq2NFlgabZy2mDdZ7KjLXAKY/jnU18n8oC16SHwdWBS7RRQt2ulKGawauAUz9eevn5/v29kdO8uNA1iu6Clt+PB/G6XQax4rNvQs6Go1CyNKQ73qm6fs3k2H36rcg7Cbs/D3Ri2m7ITo3X2fcLBHaVV0h1krHhB4euePlKoy7OWZ2oxAXYS4vL+XFixdLf7j0h92Nlhy2ZnIaQqGPk7nMTlMd4JXNfkPwvuoKsY3rx0ea3t0xsxuFCKCH1qCjobOwnMos/DBLqgPM2fY3BL+grhD1VNsAinSko+Ebaghbc+1CrqgDTDb+DcEvqCtEPdU4gFZ3N5M3s04MV64O8Jrbf0PwfuoKUVPaZ3Y1Go0+6TngJz0HjHNusmVpvW1su/5mPnz6MB5/0nM+HT7EediF/Odnn/9tx8h1mxxXRVDrFvDzUOuH+0MAAUcEEHBEAAFH7uVIdsOs3bN3dHS0ttSEesD6+txypE2Oq0IIl2Icle8qKB4KV0EB7BQBBBwRQMARAQQc1TeAm9Tx7cKN2sB4L+mTJ2F/rpdEbSX9DqHXe8PWatwCrqjjC2FIv/VnrqYnkzgvBmhmB7sNtm54TDdqL9f82bJJWi8tC7WBYbHK9mPQacZHu287Lgx1hen5q7e/2qr3hiKiC2piHd/yb/1pYHR6fmjTHWle+w2/UFvUHMigqSGZH4ZawVM90G/8tp/VFNp6hxYEq8DIagPX30ba0tfS0OnY5NReKD5/cKjbz/Zpq5rCVKOIQiKAJtbxWaYy2W/9Wb2uVRLdSldo5Va6j5q/1qG+um5jLof6vxzdT9unrbYf3xuKqcYBtK7cch1f59pv/YXuYJjWpkaP4fxv+K1jFRKhwVlX8xdrA2/bhibQChBFNIi6obA/NszCPm1SU3jzvaGg4j/Iu6nnnTB31RR++PSm80b/q2NvOp/erC07rHZtInfCYEduqym01us0nCeGJdpiru9AUptYdgSwcOwK5tVFmpZ2O8lWdRFAwBEBBBxRD4hCox5wx+p5FRSb4CoogJ0igIAjAgg4IoCAoxoHcCaTWDPX7WbVB1vZ9Df/rJTI1qNGDyvUNoCh1CjWzI3HA+mEW8CuagFnK+r/VtX1ZfV6GqpUc7c2mNTo4abaBjCU8+Vu8bpeC3hVbXBV/7eqru9QwzhvjuU/kqvhu+vWMWr0ENU2gPnwmeu1gNvGI1/D14nz1qJGD1FtA2i/kDvX87Ghhsa6kc1rtYD2m4C31v/Fur5FUJdq+FahRg8rxH+Qd1OdO2FSDR+/H3hfuBMGG8rX8FGjh80RwHuxXMMHbIoAAo4IIOCIekAUVqoFNNQD7sg2V0FRX1W9ClqqFhD1VsUWsDQBBEzVAliKLmjd2ceUBmymLMcVV0FLQj+rOIYy29vbWwxh2r4pwpijUnQVnNgHlQ/f9Wmslrqg0+k0zvH1/PnzlZ/lnjXTcdoVAVyNAH6eFMCisOP722+/vRlA6yPHaXcEcLUUOsK3uaJduLNje9WXqftVUNzNPqiEj6vcrn+WBLDgVn1r8pFVB1dBAUcEEHBEF7QEOAesLlrAErDQvXjxgvBVEAEsAfs3rZOTE+6JrSACCDgigIAjAgg4IoCAIwIIOCKAgCMCCDgigIAjAgg4IoCAIwIIOCKAgCMCCDgigIAjAgg4IoCAIwIIOCKAgCMCCDgigIAjAgg4IoCAIwIIOCKAgCMCCDgigIAjAgg4IoCAIwIIOCKAgCMCCDgigIAjAgg44jfiS4DfiK8uWsCCs/ClzNljPowoPwJYAilzZK96CGAJ5FtAVAsBLIms+8k5YNUQwIKzwNH1rC4CWCJZK0gaq4QAlgjZqx4CWDKcA1ZLKf4h/uXLl3EMdff27ds4Vg2lCeDJyUmcQl0dHR1VLoB0QQFHBBBwRAABR+UL4LQn+/v7S0NvGpcV1LSn+7lyJy/k+GD5vYSh6G8I96a0LWB7dCmXl5cyamcHeHGP2alM1+5bQ/rn9j7Opd/QyfYovKdLe1OohdJ3QdujkdjhenFxEaZDa5NakoNjbWMyF8cHSy1MNn0gx7bCxbEc6PwQ4tDCHkivl9bv6Xh8no5nWVpuuVY/z7Zt68Xn2PKNvyXi9uP+h/dk4/E1Dhavfcv+oBQqcA7YkIa2HhZAC1VvmloVDaYGq2cJ0wP3QB9Tq3l3C6PbamhrFNbTsDbOF+PWml0c9zRcbRmlFvg4BT0+77yve3UR1u2fZ18QoXXbuGVrSLttb0pfz96XbrzRbutccyGNfnx/uj/H+r7W7w+KrgIBjAeopjBrBbNALgUzzG/rQW3zNxEDENm2bWNpTra9qfRSa2OvEZbE5+XW/VyNfl/3WLerKZ5e5Pdn3ftbtT8outIHcNqzblh2gIagxECmx2ye0QN5Xdfssw7YrMUJLWpoje5b9oURWrOGjqe3kd5faB3z72/X+4NdKG0A07leb2oHXnYRo9E/1y5YOh/SYGq371wXZPOvnmPnYqmFCetqN25xfG+gPbLXy1qctL31Ysu71Tlgph2b7KvuZ2ZxTtjoy0jf33b7gyLhVrQiC6EV/YKJLVqYvtDzynjVtGa4FQ1fKNdKhSFehb0htszakqWrvKim0rSAT58+jVOoq7OzM6ohPKQApnMi1MejR4/C47t37wigl3wA0weyiY8fP261Pool//lVNYCcAwKOCCDgqLQBtO7JugEoi8q0gM+ePQvD+/fv4xyg+CoRwH6/L999dybffHMmP/zwzzj3DpOhDGf22JUn3a50dXjSnYjNAh5KJQL4+PFj+flnka++Etnf/3Ocu6mWdAZjGY/H8mEwl2FIJfAwKhHAV69eyY8//lt++umv8vXX/4pzP0OrKTKbxwlg9ypzDmh+/fUX+f33/8apz2DhsxACD6RSAfztt1/kjz/+F6c2NdPTwewcsHvalPGgFecDu1eZADabf5Pvv/+Hng/+Jc65Q2cgIWsdPffT8z87BxwPOtky4IGUNoB2i1J+sMLU169fL25dAsqgUl1QoGwIIOCIAAKOqAdEoaVzeuoBHVEPWE/5z496QAD3jgACjggg4IgAAo7qG8BQBzhJE9JdjAMPp8YtYEs6rYkM87mb6fSwq/OymsCZFe3aoCuF8eEwFuzaDdw2Te0gvky9u6CHY2lqS7jIYKsjg4HOm59m8+YasOZABk0N5vxQlzXlVEM30/DphAwOT5cDDGyp9ueAnXFHW7OsCHdmZUmTFYlqtqSlQ2K5nOt6k3lTDikfxBfgIoxoq6ftncUui+FcJrELuk6n08oK5+fz+Bzg83AnDAqLO2EA7BQBBBwRQMARAQQcUQ+IwspfQKMe0FEK4PPnz+Mc1A1XQQHcOwIIOCKAgCMCCDgigICjUl0FRb3xzxBOLICAIYAA7g3ngIAjAgg4IoCAIwIIOCKAgCMCCDgigIAjAgg4IoCAIwIIOCKAgCMCCDgigIAjAgg4IoCAIwIIOCKAgCMCCDgigIAjAgg4IoCAIwIIOCKAgCMCCDgigIAjAgg4IoCAIwIIOCKAgCMCCDgigIAjAgg4IoCAIwIIOCKAgCMCCDgigIAjAgg4IoCAIwIIOCKAgCMCCDgigIAjAgg4IoCAIwIIOCKAgCMCCDgigIAjAgg4IoCAIwIIOCKAgCMCCDgigIAjAgi4Efk/zY091l8wvr4AAAAASUVORK5CYII=;" vertex="1" parent="1">
          <mxGeometry x="110" y="-300" width="224" height="336" as="geometry" />
        </mxCell>
        <mxCell id="aVqaGwzXdZVDVJxjxJ1D-63" value="" style="html=1;rounded=1;absoluteArcSize=1;arcSize=10;whiteSpace=wrap;fillColor=none;strokeColor=#870ed8;strokeWidth=3;" vertex="1" parent="1">
          <mxGeometry x="150" y="-80" width="90" height="20" as="geometry" />
        </mxCell>
        <mxCell id="aVqaGwzXdZVDVJxjxJ1D-64" value="" style="endArrow=open;html=1;rounded=0;align=center;verticalAlign=top;endFill=0;labelBackgroundColor=none;endSize=6;strokeColor=#ab0ae6;strokeWidth=3;entryX=1;entryY=0.75;entryDx=0;entryDy=0;" edge="1" parent="1" target="aVqaGwzXdZVDVJxjxJ1D-4">
          <mxGeometry relative="1" as="geometry">
            <mxPoint x="210" y="-56" as="sourcePoint" />
            <mxPoint x="50" y="300" as="targetPoint" />
            <Array as="points">
              <mxPoint x="200" y="240" />
            </Array>
          </mxGeometry>
        </mxCell>
      </root>
    </mxGraphModel>
  </diagram>
</mxfile>
